<svg width="65" height="60" viewBox="0 0 65 60" fill="" xmlns="http://www.w3.org/2000/svg">
<path d="M33.6317 12.7693C23.142 12.7693 14.6504 20.624 14.6504 30.327C14.6504 40.0299 23.142 47.8847 33.6317 47.8847C44.1213 47.8847 52.613 40.0299 52.613 30.327C52.613 20.624 44.1213 12.7693 33.6317 12.7693ZM33.6317 43.2642C25.8893 43.2642 19.6455 37.4887 19.6455 30.327C19.6455 23.1653 25.8893 17.3897 33.6317 17.3897C41.374 17.3897 47.6179 23.1653 47.6179 30.327C47.6179 37.4887 41.374 43.2642 33.6317 43.2642Z" fill="#FFD93A"/>
<path d="M35.3569 6.38462L31.9057 0L28.4546 6.38462C29.5892 6.20969 30.7238 6.12223 31.9057 6.12223C33.0876 6.12223 34.2223 6.20969 35.3569 6.38462Z" fill="#FFD93A"/>
<path d="M28.4546 52.6731L31.9057 59.0577L35.3569 52.6731C34.2223 52.848 33.0876 52.9355 31.9057 52.9355C30.7238 52.9355 29.5892 52.848 28.4546 52.6731Z" fill="#FFD93A"/>
<path d="M49.1625 3.19238L42.2603 7.74583C44.6297 8.57818 46.8446 9.75326 48.8535 11.1732L49.1625 3.19238Z" fill="#FFD93A"/>
<path d="M18.1016 55.8653L25.0038 51.3118C22.6344 50.4795 20.4195 49.3044 18.4106 47.8845L18.1016 55.8653Z" fill="#FFD93A"/>
<path d="M61.2416 14.3655L52.6138 14.8819C54.2115 16.6658 55.543 18.6375 56.5549 20.7501L61.2416 14.3655Z" fill="#FFD93A"/>
<path d="M6.02295 44.6922L14.6508 44.1758C13.0531 42.3919 11.7216 40.4202 10.7097 38.3076L6.02295 44.6922Z" fill="#FFD93A"/>
<path d="M25.0038 7.74583L18.1016 3.19238L18.4083 11.1732C20.4023 9.75326 22.6008 8.57818 25.0038 7.74583Z" fill="#FFD93A"/>
<path d="M42.2603 51.3118L49.1625 55.8653L48.8535 47.8845C46.8961 49.3044 44.6812 50.4795 42.2603 51.3118Z" fill="#FFD93A"/>
<path d="M10.7097 20.7501C11.7216 18.6375 13.0531 16.6189 14.6508 14.8819L6.02295 14.3655L10.7097 20.7501Z" fill="#FFD93A"/>
<path d="M52.6138 44.1796L61.2416 44.6922L56.5549 38.3076C55.543 40.4514 54.2115 42.4087 52.6138 44.1796Z" fill="#FFD93A"/>
<path d="M0.846191 28.7309L7.74848 31.9232C7.55937 30.8737 7.46482 29.8241 7.46482 28.7309C7.46482 27.6376 7.55937 26.5881 7.74848 25.5386L0.846191 28.7309Z" fill="#FFD93A"/>
<path d="M64.6923 28.7309L57.79 25.5386C57.9791 26.5881 58.0737 27.6376 58.0737 28.7309C58.0737 29.8241 57.9791 30.8737 57.79 31.9232L64.6923 28.7309Z" fill="#FFD93A"/>
</svg>
