<svg className='fill-black' version="1.0" xmlns="http://www.w3.org/2000/svg"  width="44" height="39" viewBox="0 0 447.000000 393.000000"  preserveAspectRatio="xMidYMid meet">  <g transform="translate(0.000000,393.000000) scale(0.100000,-0.100000)"  stroke="none"> <path d="M1465 3248 c-52 -6 -119 -22 -170 -40 -16 -6 -43 -13 -58 -15 -16 -3 -31 -12 -34 -19 -3 -8 -13 -14 -23 -14 -10 0 -23 -7 -30 -15 -7 -8 -17 -15 -22 -15 -14 0 -147 -103 -190 -147 -79 -80 -128 -156 -128 -199 0 -12 -7 -24 -15 -28 -9 -3 -15 -18 -15 -36 0 -17 -7 -45 -16 -62 -13 -25 -16 -69 -16 -252 0 -220 5 -263 42 -351 5 -11 18 -51 31 -90 30 -96 102 -254 161 -350 10 -16 23 -41 30 -55 7 -14 15 -27 18 -30 14 -13 50 -70 50 -79 0 -5 3 -11 8 -13 4 -1 25 -25 47 -53 22 -27 45 -55 50 -62 6 -7 21 -27 35 -45 38 -49 140 -158 185 -198 22 -19 52 -47 67 -62 14 -16 29 -28 33 -28 3 0 18 -14 32 -31 16 -19 33 -29 43 -26 12 3 16 0 13 -12 -2 -11 14 -28 49 -51 29 -19 76 -53 103 -76 28 -23 76 -56 108 -74 32 -18 61 -39 64 -46 3 -8 14 -14 24 -14 10 0 19 -4 19 -9 0 -5 28 -23 63 -40 34 -17 80 -40 102 -52 64 -35 74 -39 89 -39 24 0 28 32 6 62 -11 15 -20 30 -20 33 0 3 -19 32 -42 63 -64 85 -81 112 -114 172 -16 30 -32 57 -36 60 -4 3 -12 17 -17 30 -6 14 -15 32 -20 40 -5 8 -17 33 -26 55 -10 22 -24 52 -32 67 -8 15 -13 59 -13 107 0 63 5 89 22 123 12 24 26 45 30 46 4 2 8 9 8 16 0 12 15 34 62 89 15 18 28 37 28 42 0 6 9 21 20 35 35 43 124 183 144 225 10 22 22 48 28 58 9 19 4 30 -34 69 -10 10 -22 18 -28 18 -5 0 -10 4 -10 9 0 5 -10 11 -22 15 -13 3 -43 25 -68 49 -44 42 -149 126 -200 159 -43 27 -84 71 -137 146 -18 24 -23 45 -23 93 0 62 13 100 61 174 10 17 24 42 30 58 6 15 15 27 19 27 5 0 16 20 26 45 9 25 20 45 24 45 5 0 18 19 30 43 12 23 27 47 33 52 17 15 47 74 47 91 0 8 7 17 15 20 8 4 15 14 15 24 0 10 8 33 17 52 9 18 20 41 24 50 7 13 -1 24 -35 46 -24 17 -54 33 -65 37 -12 3 -21 11 -21 16 0 5 -12 9 -27 9 -16 0 -37 7 -47 15 -11 8 -33 15 -50 15 -16 0 -37 6 -45 14 -18 16 -221 26 -306 14z"/> <path d="M2860 3250 c-119 -6 -203 -23 -231 -46 -8 -8 -23 -14 -31 -14 -28 0 -131 -59 -172 -97 -47 -45 -137 -165 -168 -224 -12 -24 -24 -46 -27 -49 -4 -3 -16 -25 -29 -50 -24 -47 -80 -147 -105 -190 -27 -44 -58 -114 -64 -141 -4 -19 1 -29 19 -41 12 -9 43 -34 68 -57 25 -22 49 -41 53 -41 4 0 31 -24 60 -53 29 -28 79 -73 112 -98 90 -70 191 -180 198 -219 11 -54 8 -107 -9 -150 -9 -22 -14 -47 -10 -55 4 -10 -1 -15 -14 -15 -11 0 -20 -4 -20 -9 0 -4 -13 -24 -30 -42 -16 -19 -30 -39 -30 -45 0 -10 -10 -24 -50 -71 -5 -7 -10 -17 -10 -23 0 -6 -20 -38 -45 -70 -25 -32 -45 -63 -45 -69 0 -5 -6 -14 -12 -18 -15 -9 -33 -37 -48 -70 -5 -13 -14 -23 -19 -23 -5 0 -12 -16 -15 -35 -7 -36 14 -93 64 -170 11 -16 31 -52 45 -80 33 -63 44 -82 75 -125 28 -38 40 -59 66 -108 9 -19 25 -39 36 -45 10 -7 18 -19 18 -28 0 -9 7 -23 16 -30 14 -11 18 -10 30 5 7 11 20 16 28 13 18 -7 137 52 214 106 28 21 55 37 60 37 4 0 15 8 23 18 9 9 44 42 78 72 93 81 121 109 121 120 0 6 5 10 10 10 16 0 240 232 240 248 0 5 7 12 15 16 8 3 15 14 15 25 0 11 4 21 9 23 12 4 91 105 91 116 0 5 7 16 16 23 52 43 244 426 244 488 0 14 7 35 15 45 8 11 15 32 15 48 0 15 6 45 14 65 38 104 60 488 32 548 -9 18 -16 41 -16 50 0 9 -7 23 -15 31 -8 9 -15 24 -15 33 0 10 -7 24 -15 31 -8 7 -15 18 -15 25 0 7 -13 27 -30 45 -16 18 -30 35 -30 39 0 15 -67 71 -84 71 -12 0 -16 5 -12 15 6 17 -108 114 -135 115 -9 0 -22 7 -30 16 -7 8 -21 13 -30 11 -10 -3 -26 4 -35 14 -9 10 -25 19 -34 19 -9 0 -25 7 -36 15 -10 8 -32 15 -47 15 -16 0 -38 6 -50 12 -30 17 -148 24 -287 18z"/> </g> </svg>