<svg xmlns="http://www.w3.org/2000/svg" xmlns:xlink="http://www.w3.org/1999/xlink" width="1080" zoomAndPan="magnify" viewBox="0 0 810 809.999993" height="1080" preserveAspectRatio="xMidYMid meet" version="1.0"><defs><clipPath id="e886375817"><path d="M 172.105469 31 L 637.855469 31 L 637.855469 779 L 172.105469 779 Z M 172.105469 31 " clip-rule="nonzero"/></clipPath></defs><rect x="-81" width="972" fill="#ffffff" y="-80.999999" height="971.999992" fill-opacity="1"/><rect x="-81" width="972" fill="#ffffff" y="-80.999999" height="971.999992" fill-opacity="1"/><g clip-path="url(#e886375817)"><path fill="#e78eb6" d="M 252.144531 58 C 252.839844 57.011719 253.933594 56.566406 254.890625 55.964844 C 260.390625 52.480469 266.078125 49.320312 271.796875 46.207031 C 278.378906 42.617188 285.070312 39.210938 291.820312 35.957031 C 292.359375 35.695312 292.898438 35.402344 293.40625 35.0625 C 295.070312 33.96875 297 34.0625 298.847656 33.90625 C 303.84375 33.507812 308.867188 33.214844 313.875 32.9375 C 323.910156 32.367188 333.945312 31.996094 343.992188 31.859375 C 356.523438 31.671875 369.054688 31.378906 381.570312 31.257812 C 390.726562 31.164062 399.898438 31.363281 409.050781 31.257812 C 426.777344 31.070312 444.488281 31.503906 462.195312 31.796875 C 471.351562 31.949219 480.523438 32.136719 489.679688 32.582031 C 494.300781 32.8125 498.925781 33.042969 503.550781 33.398438 C 506.957031 33.660156 510.363281 33.90625 513.769531 34.109375 C 514.863281 34.167969 515.789062 34.632812 516.726562 35.09375 C 521.414062 37.4375 526.113281 39.75 530.753906 42.183594 C 539.246094 46.636719 547.695312 51.183594 555.800781 56.332031 C 556.773438 56.949219 557.726562 57.628906 558.730469 58.183594 C 559.375 58.554688 559.699219 59.078125 559.808594 59.738281 C 559.960938 60.601562 560.101562 61.480469 560.148438 62.359375 C 560.238281 64.503906 560.515625 66.628906 560.53125 68.789062 C 560.609375 76.402344 560.609375 84.015625 560.949219 91.613281 C 561.441406 102.925781 561.457031 114.226562 561.378906 125.539062 C 561.347656 130.332031 561.054688 135.125 560.488281 139.886719 C 560.332031 141.136719 559.792969 142.308594 559.515625 143.542969 C 558.375 148.535156 557.140625 153.496094 555.96875 158.476562 C 555.847656 159.015625 555.660156 159.460938 555.246094 159.894531 C 548.292969 167.09375 540.894531 173.765625 532.988281 179.886719 C 529.183594 182.828125 525.175781 185.464844 521.058594 187.945312 C 520.242188 188.441406 519.425781 188.53125 518.53125 188.5 C 514.292969 188.300781 510.039062 188.007812 505.800781 187.929688 C 493.933594 187.714844 482.0625 187.839844 470.195312 187.855469 C 469.871094 187.855469 469.535156 187.824219 469.148438 188.054688 C 469.472656 189.347656 469.839844 190.660156 470.132812 192 C 471.011719 196.175781 471.136719 200.429688 471.257812 204.667969 C 471.492188 212.285156 471.707031 219.898438 471.890625 227.496094 C 472 232.242188 472.324219 236.992188 472.121094 241.722656 C 471.984375 245.160156 471.539062 248.550781 469.347656 251.417969 C 469.257812 251.539062 469.179688 251.695312 469.378906 252.050781 C 470.289062 252.050781 471.304688 252.066406 472.339844 252.050781 C 482.496094 251.832031 492.636719 251.664062 502.796875 251.371094 C 506.539062 251.261719 510.300781 251.0625 514.046875 251.15625 C 518.132812 251.261719 522.199219 251.417969 526.253906 252.035156 C 531.910156 252.898438 537.121094 254.886719 542.007812 257.796875 C 549.960938 262.515625 557.140625 268.28125 564.09375 274.367188 C 573.171875 282.335938 582.050781 290.550781 590.988281 298.675781 C 597.125 304.238281 603.148438 309.910156 608.851562 315.90625 C 614.863281 322.242188 620.519531 328.851562 625.40625 336.097656 C 628.042969 339.996094 629.984375 344.234375 631.601562 348.675781 C 632.945312 352.375 633.265625 356.164062 633.46875 360.019531 C 633.761719 365.304688 633.820312 370.59375 633.929688 375.894531 C 634.054688 381.796875 634.316406 387.683594 634.578125 393.574219 C 634.792969 398.644531 635.117188 403.699219 635.347656 408.769531 C 635.503906 412.128906 635.5625 415.507812 635.703125 418.867188 C 635.871094 423.058594 636.085938 427.234375 636.273438 431.429688 C 636.367188 433.355469 636.441406 435.28125 636.503906 437.207031 C 636.734375 443.265625 636.964844 449.335938 637.199219 455.394531 C 637.828125 471.117188 637.796875 486.839844 637.875 502.574219 C 637.953125 517.804688 637.8125 533.03125 637.503906 548.257812 C 637.414062 552.789062 637.382812 557.308594 637.304688 561.839844 C 636.84375 587.671875 636.78125 613.503906 636.84375 639.320312 C 636.859375 648.753906 637.011719 658.203125 637.058594 667.632812 C 637.074219 672.210938 636.828125 676.789062 636.550781 681.367188 C 636.488281 682.382812 636.195312 683.277344 635.5625 684.109375 C 634.949219 684.941406 634.515625 685.929688 633.976562 686.824219 C 632.359375 689.472656 630.308594 691.800781 628.195312 694.050781 C 621.015625 701.695312 613.445312 708.957031 605.847656 716.183594 C 598.402344 723.261719 590.558594 729.871094 582.742188 736.546875 C 573.894531 744.113281 565.078125 751.726562 556.230469 759.28125 C 552.285156 762.65625 548.203125 765.847656 543.855469 768.683594 C 538.105469 772.429688 531.800781 774.585938 525.035156 775.417969 C 523.402344 775.617188 521.753906 775.710938 520.105469 775.726562 C 514.816406 775.742188 509.53125 776.035156 504.257812 776.34375 C 502.007812 776.480469 499.742188 776.375 497.476562 776.480469 C 493.730469 776.667969 489.988281 776.683594 486.242188 776.804688 C 480.832031 776.976562 475.4375 777.175781 470.027344 777.328125 C 465.894531 777.453125 461.75 777.515625 457.621094 777.589844 C 448.742188 777.730469 439.863281 777.945312 430.984375 778.300781 C 428.828125 778.394531 426.683594 778.410156 424.527344 778.46875 C 413.832031 778.792969 403.117188 778.886719 392.40625 778.65625 C 385.730469 778.5 379.058594 778.363281 372.382812 778.085938 C 362.628906 777.699219 352.855469 777.652344 343.085938 777.4375 C 335.53125 777.269531 327.980469 777.050781 320.425781 776.757812 C 315.910156 776.589844 311.394531 776.480469 306.863281 776.359375 C 302.515625 776.25 298.171875 775.941406 293.824219 775.742188 C 292.730469 775.695312 291.621094 775.710938 290.511719 775.710938 C 280.769531 775.726562 271.984375 772.828125 264.0625 767.203125 C 257.339844 762.425781 251.113281 757.0625 244.949219 751.621094 C 237.289062 744.871094 229.425781 738.363281 221.707031 731.691406 C 213.859375 724.910156 206.0625 718.066406 198.664062 710.777344 C 193.699219 705.90625 188.722656 701.050781 183.867188 696.054688 C 181.984375 694.113281 180.183594 692.109375 178.441406 690.03125 C 176.683594 687.949219 175.542969 685.484375 174.03125 683.246094 C 173.554688 682.523438 173.601562 681.660156 173.570312 680.84375 C 173.402344 675.878906 173.015625 670.917969 173.078125 665.953125 C 173.371094 644.207031 173.445312 622.457031 173.324219 600.710938 C 173.230469 586.253906 172.96875 571.796875 172.769531 557.335938 C 172.644531 548.183594 172.539062 539.011719 172.398438 529.855469 C 172.246094 519.097656 172.136719 508.324219 172.261719 497.566406 C 172.351562 488.410156 172.476562 479.238281 172.582031 470.082031 C 172.691406 461.144531 173.109375 452.21875 173.476562 443.28125 C 173.722656 437.160156 173.925781 431.042969 174.171875 424.921875 C 174.464844 417.710938 174.710938 410.480469 175.097656 403.269531 C 175.359375 398.257812 175.496094 393.234375 175.773438 388.226562 C 176.019531 383.753906 176.019531 379.300781 176.207031 374.832031 C 176.34375 371.625 176.296875 368.433594 176.421875 365.242188 C 176.5625 361.730469 176.792969 358.214844 177.085938 354.699219 C 177.300781 352.171875 178.226562 349.800781 179.058594 347.410156 C 181.832031 339.457031 186.808594 332.859375 192.050781 326.433594 C 200.421875 316.199219 209.882812 307.027344 219.71875 298.210938 C 225.265625 293.25 230.691406 288.132812 236.226562 283.152344 C 243.316406 276.773438 250.34375 270.285156 258.035156 264.609375 C 262.351562 261.4375 266.726562 258.382812 271.535156 255.964844 C 277.410156 253.003906 283.667969 251.726562 290.1875 251.371094 C 301.222656 250.769531 312.257812 251.585938 323.277344 251.742188 C 328.6875 251.816406 334.082031 251.941406 339.492188 252.035156 C 339.96875 252.050781 340.464844 252.171875 341.003906 251.847656 C 340.832031 251.203125 340.277344 250.769531 339.984375 250.199219 C 338.832031 248.011719 338.289062 245.652344 338.121094 243.234375 C 337.796875 238.65625 338.089844 234.078125 338.246094 229.5 C 338.460938 223.273438 338.597656 217.03125 338.769531 210.804688 C 338.859375 207.382812 338.84375 203.960938 339.046875 200.539062 C 339.292969 196.578125 339.617188 192.632812 340.847656 188.808594 C 340.941406 188.546875 341.019531 188.285156 340.894531 187.976562 C 340.417969 187.667969 339.863281 187.808594 339.324219 187.808594 C 326.960938 187.808594 314.601562 187.652344 302.222656 187.929688 C 298.757812 188.007812 295.273438 188.238281 291.804688 188.46875 C 290.648438 188.546875 289.675781 188.253906 288.691406 187.667969 C 281.046875 183.167969 274.15625 177.679688 267.484375 171.871094 C 263.199219 168.140625 259.128906 164.164062 255.105469 160.15625 C 254.550781 159.601562 254.289062 159.015625 254.136719 158.308594 C 252.949219 153.328125 251.882812 148.304688 250.558594 143.355469 C 249.1875 138.238281 249.09375 133.03125 248.878906 127.804688 C 248.632812 121.839844 248.570312 115.890625 248.679688 109.925781 C 248.800781 103.25 248.925781 96.578125 249.171875 89.917969 C 249.265625 87.4375 249.15625 84.957031 249.324219 82.472656 C 249.648438 77.957031 249.371094 73.425781 249.589844 68.910156 C 249.726562 66.058594 249.742188 63.191406 250.203125 60.355469 C 250.390625 59.214844 250.714844 58.230469 252.132812 58.011719 C 252.101562 58.261719 251.914062 58.398438 251.792969 58.539062 C 251.839844 58.539062 251.792969 58.613281 251.792969 58.613281 C 251.792969 58.613281 251.792969 58.492188 251.929688 58.570312 C 253.085938 58.816406 254.027344 58.445312 254.996094 58.304688 C 261.625 57.304688 268.222656 56.039062 274.882812 55.238281 C 276.746094 55.023438 278.257812 54.453125 279.058594 52.605469 C 279.273438 52.109375 279.691406 51.710938 280.027344 51.277344 C 283.605469 46.792969 287.394531 42.507812 291.496094 38.484375 C 291.914062 38.070312 292.5 37.777344 292.667969 37.097656 C 292.542969 36.835938 292.699219 37.160156 292.511719 37.097656 C 290.585938 37.882812 288.785156 38.683594 286.996094 39.546875 C 275.480469 45.066406 264.121094 50.878906 253.226562 57.582031 C 252.871094 57.84375 252.578125 58.167969 252.144531 58 Z M 517.453125 37.035156 C 517.359375 36.929688 517.269531 36.929688 517.269531 37.066406 C 517.269531 37.175781 517.390625 37.207031 517.484375 37.359375 C 520.335938 39.949219 522.878906 42.847656 525.4375 45.714844 C 527.703125 48.257812 529.984375 50.800781 531.800781 53.699219 C 532.328125 54.53125 532.988281 54.882812 533.914062 55.023438 C 541.34375 56.101562 548.757812 57.273438 556.15625 58.554688 C 556.832031 58.675781 557.558594 58.953125 558.234375 58.628906 C 558.234375 58.628906 558.21875 58.628906 558.128906 58.429688 C 557.109375 57.78125 556.109375 57.089844 555.078125 56.472656 C 543.5 49.582031 531.496094 43.511719 519.316406 37.761719 C 518.714844 37.515625 518.160156 37.035156 517.453125 37.035156 Z M 552.210938 691.941406 C 549.359375 693.160156 546.398438 694.019531 543.425781 694.839844 C 530.832031 698.277344 517.945312 699.878906 504.96875 700.773438 C 500.066406 701.113281 495.164062 701.28125 490.265625 701.480469 C 482.882812 701.789062 475.484375 702.066406 468.101562 702.097656 C 453.796875 702.175781 439.507812 702.175781 425.207031 702.253906 C 399.820312 702.390625 374.417969 702.144531 349.035156 702.144531 C 342.359375 702.144531 335.671875 702.097656 328.996094 701.835938 C 322.722656 701.589844 316.433594 701.449219 310.160156 701.019531 C 306.152344 700.742188 302.132812 700.511719 298.125 700.1875 C 293.023438 699.769531 287.9375 699.152344 282.894531 698.304688 C 274.742188 696.949219 266.664062 695.207031 258.882812 692.355469 C 258.390625 692.171875 257.894531 691.769531 257.386719 692.046875 L 257.386719 691.972656 C 257.386719 691.972656 257.339844 692.09375 257.511719 692.234375 C 264.167969 698.597656 270.980469 704.796875 277.996094 710.777344 C 281.136719 713.457031 284.207031 716.246094 287.550781 718.683594 C 289.800781 720.332031 292.113281 721.363281 295.132812 721.316406 C 303.347656 721.210938 311.5625 721.6875 319.777344 721.996094 C 326.730469 722.257812 333.683594 722.414062 340.632812 722.503906 C 354.96875 722.71875 369.316406 723.214844 383.652344 723.335938 C 406.046875 723.523438 428.441406 723.398438 450.835938 722.859375 C 467.761719 722.457031 484.699219 722.304688 501.625 721.550781 C 506.480469 721.332031 511.332031 721.242188 516.1875 721.242188 C 517.636719 721.242188 518.871094 720.933594 520.089844 720.238281 C 521.832031 719.253906 523.433594 718.097656 524.945312 716.800781 C 529.273438 713.117188 533.605469 709.449219 537.890625 705.703125 C 542.589844 701.605469 547.167969 697.367188 551.671875 693.050781 C 552.023438 692.710938 552.703125 692.480469 552.503906 691.832031 C 552.71875 691.832031 552.472656 692.03125 552.609375 691.863281 C 552.53125 691.863281 552.472656 691.832031 552.210938 691.941406 Z M 530.355469 717.542969 C 537.011719 714.335938 543.609375 710.992188 550.066406 707.398438 C 563.03125 700.21875 575.003906 691.742188 585.285156 680.964844 C 592.621094 673.273438 597.492188 664.304688 599.945312 653.960938 C 602.316406 643.945312 603.011719 633.710938 603.828125 623.492188 C 604.121094 619.914062 604.273438 616.339844 604.460938 612.761719 C 604.769531 606.644531 605.0625 600.523438 605.152344 594.40625 C 605.445312 573.660156 605.324219 552.898438 605 532.152344 C 604.859375 522.765625 604.816406 513.378906 604.722656 504.007812 C 604.644531 495.113281 604.722656 486.238281 604.476562 477.34375 C 604.167969 466.261719 604.089844 455.164062 603.597656 444.082031 C 603.273438 436.746094 603.117188 429.410156 602.828125 422.070312 C 602.59375 416.015625 602.300781 409.941406 601.992188 403.882812 C 601.746094 399.152344 601.5 394.40625 601.144531 389.671875 C 600.621094 382.628906 600.003906 375.601562 599.265625 368.574219 C 598.773438 363.886719 597.941406 359.308594 596.261719 354.886719 C 594.457031 350.125 592.113281 345.621094 589.570312 341.230469 C 583.945312 331.566406 577.242188 322.671875 570.074219 314.101562 C 561.917969 304.347656 553.351562 295.007812 543.484375 286.914062 C 537.195312 281.75 530.617188 277.050781 523.539062 273.011719 C 523.046875 272.71875 522.601562 272.226562 521.816406 272.378906 C 521.613281 272.964844 521.214844 273.503906 521.214844 274.289062 C 522.738281 275.230469 524.28125 276.1875 525.808594 277.15625 C 532.1875 281.210938 538.445312 285.449219 544.070312 290.550781 C 551.855469 297.609375 558.929688 305.347656 565.574219 313.488281 C 571.769531 321.070312 577.285156 329.117188 581.863281 337.777344 C 586.519531 346.59375 590.1875 355.78125 592.097656 365.613281 C 592.886719 369.667969 593.441406 373.75 593.902344 377.835938 C 594.195312 380.488281 594.566406 383.152344 594.503906 385.851562 C 594.273438 385.433594 594.132812 384.988281 594.054688 384.527344 C 593.59375 381.535156 593.148438 378.5625 592.714844 375.570312 C 591.035156 363.808594 587.226562 352.789062 581.511719 342.402344 C 575.160156 330.886719 567.300781 320.453125 558.4375 310.789062 C 547.371094 298.71875 535.070312 288.132812 520.96875 279.730469 C 520.414062 279.40625 519.933594 278.914062 519.117188 278.898438 C 517.578125 282.492188 516.035156 286.082031 514.476562 289.671875 C 512.90625 293.265625 511.566406 296.964844 509.238281 300.183594 C 510.132812 297.734375 511.289062 295.40625 512.351562 293.035156 C 513.445312 290.628906 514.476562 288.179688 515.527344 285.757812 C 516.574219 283.339844 517.636719 280.917969 518.730469 278.421875 C 518.023438 277.988281 517.4375 277.605469 516.804688 277.25 C 513.816406 275.570312 510.777344 274 507.867188 272.226562 C 506.046875 271.117188 504.121094 270.390625 502.085938 269.835938 C 501.285156 269.621094 500.453125 269.542969 499.667969 269.28125 C 498.570312 268.910156 497.664062 269.171875 496.675781 269.667969 C 488.476562 273.75 479.675781 275.648438 470.628906 276.585938 C 468.546875 276.804688 466.449219 276.847656 464.371094 277.050781 C 459.761719 277.527344 455.136719 277.851562 450.511719 278.097656 C 444.179688 278.4375 437.828125 278.3125 431.476562 278.34375 C 424.742188 278.390625 418.023438 278.050781 411.316406 277.589844 C 407.402344 277.328125 403.503906 277.25 399.605469 277.480469 C 394.980469 277.757812 390.371094 278.222656 385.746094 278.253906 C 374.941406 278.359375 364.121094 278.621094 353.316406 277.667969 C 348 277.203125 342.667969 276.941406 337.351562 276.324219 C 328.796875 275.339844 320.550781 273.289062 312.8125 269.4375 C 312.367188 269.21875 311.933594 268.941406 311.410156 269.050781 C 308.804688 269.558594 306.152344 270.007812 303.8125 271.253906 C 299.910156 273.320312 296.121094 275.585938 292.28125 277.773438 C 291.957031 277.960938 291.574219 278.097656 291.386719 278.714844 C 294.578125 285.757812 297.460938 293.09375 301.144531 300.230469 C 300.757812 300.199219 300.589844 300.230469 300.558594 300.183594 C 296.582031 293.417969 294.222656 285.898438 290.816406 278.882812 C 290.261719 278.867188 289.925781 279.175781 289.554688 279.394531 C 284.929688 282.214844 280.367188 285.109375 276.066406 288.394531 C 258.929688 301.464844 244.394531 316.984375 232.742188 335.15625 C 228.085938 342.433594 224.21875 350.109375 221.367188 358.277344 C 218.699219 365.953125 217.40625 373.9375 216.265625 381.953125 C 216.078125 383.261719 216.003906 384.601562 215.507812 386.019531 C 215.214844 385.375 215.339844 384.894531 215.402344 384.402344 C 215.816406 380.6875 216.1875 376.972656 216.664062 373.273438 C 217.328125 368.078125 218.285156 362.945312 219.761719 357.921875 C 222.167969 349.800781 225.636719 342.125 229.78125 334.742188 C 235.421875 324.675781 242.375 315.566406 249.941406 306.90625 C 256.09375 299.875 262.550781 293.140625 269.792969 287.238281 C 275.328125 282.738281 281.308594 278.882812 287.382812 275.152344 C 287.890625 274.847656 288.507812 274.660156 288.828125 274.042969 C 288.613281 273.441406 288.523438 272.78125 288.027344 272.316406 C 287.519531 272.289062 287.164062 272.59375 286.796875 272.8125 C 277.160156 278.296875 268.34375 284.910156 260.191406 292.417969 C 249.878906 301.894531 240.847656 312.546875 232.308594 323.613281 C 226.34375 331.367188 220.980469 339.519531 216.605469 348.304688 C 213.503906 354.53125 211.457031 361.050781 210.777344 368.019531 C 209.898438 377.144531 209.035156 386.25 208.496094 395.390625 C 208.097656 402.171875 207.710938 408.941406 207.417969 415.722656 C 207.109375 422.671875 206.878906 429.625 206.648438 436.558594 C 206.371094 444.882812 206.046875 453.222656 205.875 461.546875 C 205.644531 472.75 205.492188 483.957031 205.367188 495.160156 C 205.136719 515.691406 204.890625 536.222656 204.765625 556.753906 C 204.6875 569.667969 204.566406 582.585938 204.953125 595.5 C 205.152344 602.558594 205.414062 609.617188 205.800781 616.664062 C 206.09375 622.121094 206.476562 627.558594 206.957031 633 C 207.539062 639.660156 208.375 646.257812 209.792969 652.792969 C 212.289062 664.351562 217.851562 674.152344 226.207031 682.492188 C 235.175781 691.449219 245.242188 698.90625 256.199219 705.226562 C 263.796875 709.621094 271.582031 713.640625 279.503906 717.417969 C 279.707031 717.511719 279.9375 717.789062 280.289062 717.433594 C 270.488281 708.832031 261.238281 699.664062 252.253906 690.246094 C 243.300781 680.859375 234.558594 671.273438 225.992188 661.316406 C 226.652344 661.238281 226.808594 661.578125 227.023438 661.792969 C 228.085938 662.902344 229.121094 664.058594 230.199219 665.167969 C 237.859375 673.105469 245.671875 680.90625 253.59375 688.613281 C 255.152344 690.121094 256.863281 691.183594 258.867188 691.878906 C 260.421875 692.417969 261.996094 692.925781 263.582031 693.40625 C 275.359375 696.902344 287.441406 698.613281 299.648438 699.554688 C 304.921875 699.957031 310.207031 700.265625 315.496094 700.449219 C 325.527344 700.804688 335.578125 700.988281 345.628906 700.988281 C 362.90625 700.972656 380.183594 700.925781 397.445312 700.910156 C 406.601562 700.894531 415.773438 700.988281 424.925781 700.910156 C 445.179688 700.742188 465.449219 701.296875 485.703125 700.664062 C 491.113281 700.496094 496.507812 700.308594 501.902344 700.03125 C 506.910156 699.785156 511.902344 699.402344 516.898438 698.921875 C 522.984375 698.335938 529.027344 697.457031 535.007812 696.226562 C 540.941406 694.992188 546.832031 693.574219 552.488281 691.308594 C 553.410156 690.9375 554.304688 690.554688 555.046875 689.84375 C 564.617188 680.613281 574.050781 671.226562 583.160156 661.546875 C 583.328125 661.359375 583.484375 661.066406 583.835938 661.285156 C 583.820312 661.375 583.851562 661.5 583.789062 661.5625 C 581.109375 664.628906 578.441406 667.726562 575.730469 670.761719 C 570.105469 677.066406 564.386719 683.261719 558.558594 689.382812 C 552.316406 695.933594 545.996094 702.421875 539.386719 708.601562 C 536.609375 711.207031 533.761719 713.734375 530.96875 716.339844 C 530.585938 716.710938 529.796875 716.941406 530.074219 717.601562 C 529.984375 717.589844 529.90625 717.558594 529.8125 717.542969 C 529.828125 717.867188 530.183594 717.527344 530.355469 717.542969 Z M 588.105469 683.292969 C 587.445312 683.957031 586.8125 684.632812 586.132812 685.28125 C 577.039062 694.050781 566.605469 700.925781 555.476562 706.800781 C 547.429688 711.054688 539.15625 714.859375 530.769531 718.390625 C 529.304688 719.007812 527.65625 719.421875 526.421875 720.363281 C 524.035156 722.164062 521.566406 723.800781 518.933594 725.21875 C 518.132812 725.648438 517.34375 725.972656 516.449219 726.019531 C 515.742188 726.050781 515.019531 726.035156 514.292969 726.050781 C 482.386719 726.34375 450.484375 725.941406 418.59375 724.972656 C 416.066406 724.894531 413.523438 724.832031 410.996094 724.585938 C 408.589844 724.355469 406.140625 724.308594 403.71875 724.417969 C 401.515625 724.523438 399.3125 724.601562 397.105469 724.707031 C 390.433594 725.046875 383.757812 725.25 377.085938 725.386719 C 364.230469 725.648438 351.359375 725.894531 338.507812 726.019531 C 323.816406 726.15625 309.144531 726.203125 294.457031 726.035156 C 293.578125 726.019531 292.636719 726.125 291.867188 725.664062 C 289.355469 724.183594 286.671875 722.96875 284.484375 720.980469 C 283.820312 720.378906 283.050781 719.976562 282.234375 719.636719 C 270.164062 714.582031 258.25 709.203125 246.984375 702.53125 C 237.78125 697.089844 229.257812 690.753906 221.738281 683.09375 C 212.582031 673.769531 206.675781 662.777344 204.335938 649.894531 C 202.714844 641.03125 202.054688 632.074219 201.453125 623.105469 C 201.035156 616.878906 200.742188 610.652344 200.496094 604.425781 C 200.113281 595.101562 199.925781 585.773438 199.957031 576.449219 C 200.019531 555.425781 200.265625 534.386719 200.433594 513.363281 C 200.589844 493.820312 200.789062 474.292969 201.34375 454.746094 C 201.589844 445.976562 201.867188 437.207031 202.175781 428.4375 C 202.410156 422.101562 202.699219 415.753906 202.992188 409.417969 C 203.316406 402.3125 203.765625 395.207031 204.257812 388.101562 C 204.78125 380.503906 205.597656 372.933594 206.308594 365.351562 C 206.476562 363.546875 206.585938 361.683594 207.09375 359.957031 C 207.878906 357.320312 208.652344 354.671875 209.667969 352.113281 C 212.289062 345.515625 215.742188 339.363281 219.5625 333.414062 C 229.765625 317.601562 241.882812 303.421875 256.03125 291 C 264.136719 283.878906 272.691406 277.375 282.203125 272.226562 C 283.789062 271.363281 285.378906 270.515625 286.980469 269.652344 C 286.503906 267.554688 285.363281 265.8125 285.054688 263.808594 C 286.070312 265.566406 286.535156 267.554688 287.582031 269.34375 C 290.125 268.203125 292.574219 267.078125 295.058594 266.027344 C 297.492188 264.980469 299.972656 264.011719 302.640625 262.914062 C 300.421875 261.21875 298.753906 259.386719 297.015625 257.613281 C 296.382812 256.964844 295.71875 256.6875 294.824219 256.765625 C 293.285156 256.890625 291.742188 256.933594 290.203125 256.996094 C 283.113281 257.289062 276.546875 259.246094 270.457031 262.929688 C 264.292969 266.644531 258.667969 271.101562 253.039062 275.554688 C 240.710938 285.3125 228.578125 295.328125 216.726562 305.671875 C 207.664062 313.578125 198.679688 321.578125 190.816406 330.75 C 187.503906 334.601562 184.296875 338.515625 181.847656 343.003906 C 179.058594 348.089844 177.117188 353.328125 177.421875 359.339844 C 177.714844 364.949219 177.640625 370.578125 177.855469 376.203125 C 178.117188 382.597656 178.070312 389.011719 178.132812 395.40625 C 178.226562 405.179688 177.917969 414.949219 177.917969 424.707031 C 177.917969 434.03125 178.054688 443.359375 178.117188 452.699219 C 178.210938 467.261719 177.855469 481.84375 177.761719 496.410156 C 177.699219 504.6875 177.6875 512.964844 177.824219 521.238281 C 178.101562 539.890625 178.332031 558.539062 178.578125 577.191406 C 178.625 580.117188 178.65625 583.046875 178.6875 585.960938 C 178.855469 601.359375 178.828125 616.753906 178.871094 632.152344 C 178.917969 647.382812 178.164062 662.609375 178.902344 677.851562 C 178.996094 679.625 179.398438 681.214844 180.214844 682.738281 C 180.84375 683.910156 181.554688 685.019531 182.386719 686.054688 C 185.191406 689.613281 188.429688 692.804688 191.605469 696.007812 C 198.167969 702.636719 204.90625 709.078125 211.65625 715.523438 C 216.449219 720.101562 221.195312 724.707031 226.019531 729.253906 C 234.082031 736.871094 242.21875 744.40625 250.421875 751.882812 C 255.597656 756.597656 260.640625 761.46875 266.1875 765.769531 C 274.046875 771.886719 283.003906 774.800781 292.898438 774.910156 C 300.175781 774.988281 307.464844 774.800781 314.738281 774.539062 C 320.921875 774.308594 327.101562 774.277344 333.28125 774.183594 C 348.230469 773.953125 363.183594 773.738281 378.148438 773.523438 C 382.171875 773.460938 386.210938 773.445312 390.234375 773.367188 C 395.535156 773.261719 400.820312 772.921875 406.125 773.027344 C 415.496094 773.230469 424.882812 773.445312 434.269531 773.597656 C 445.964844 773.800781 457.664062 773.921875 469.363281 774.09375 C 477.980469 774.214844 486.582031 774.277344 495.179688 774.554688 C 498.648438 774.664062 502.132812 774.648438 505.601562 774.785156 C 510.457031 774.988281 515.296875 775.0625 520.148438 774.753906 C 524.742188 774.460938 529.183594 773.476562 533.46875 771.78125 C 538.398438 769.824219 542.683594 766.832031 546.722656 763.441406 C 552.023438 759.019531 556.957031 754.195312 562.074219 749.570312 C 570.707031 741.753906 579.183594 733.773438 587.660156 725.789062 C 592.839844 720.902344 597.972656 715.96875 603.089844 711.007812 C 610.457031 703.855469 617.898438 696.78125 624.882812 689.257812 C 626.5 687.515625 628.042969 685.714844 629.261719 683.664062 C 630.109375 682.230469 630.910156 680.78125 630.984375 679.070312 C 631.125 676.203125 631.292969 673.335938 631.324219 670.46875 C 631.449219 659.867188 631.25 649.277344 631.171875 638.671875 C 631.0625 624.492188 631.109375 610.296875 631.25 596.117188 C 631.355469 584.355469 631.433594 572.613281 631.632812 560.851562 C 631.847656 547.65625 632.082031 534.480469 632.203125 521.285156 C 632.3125 508.925781 632.296875 496.5625 632.109375 484.1875 C 632.019531 477.945312 631.894531 471.71875 631.878906 465.476562 C 631.863281 459.679688 631.957031 453.882812 632.003906 448.089844 C 632.21875 421.871094 631.539062 395.667969 632.402344 369.453125 C 632.558594 364.597656 632.433594 359.742188 632.417969 354.886719 C 632.417969 353.730469 632.265625 352.574219 631.878906 351.480469 C 630 346.207031 627.503906 341.261719 624.097656 336.777344 C 618.703125 329.683594 612.566406 323.273438 606.09375 317.183594 C 597.722656 309.324219 589.03125 301.832031 580.199219 294.496094 C 569.59375 285.664062 558.976562 276.863281 547.925781 268.585938 C 543.761719 265.472656 539.449219 262.609375 534.730469 260.386719 C 528.320312 257.382812 521.445312 256.949219 514.539062 256.75 C 514.140625 256.734375 513.769531 256.796875 513.476562 257.089844 C 511.488281 259 509.699219 261.097656 507.296875 262.945312 C 512.597656 264.949219 517.546875 267.03125 522.414062 269.390625 C 523.417969 267.523438 523.863281 265.597656 524.929688 263.933594 C 524.542969 265.90625 523.464844 267.664062 523.046875 269.511719 C 523.277344 269.898438 523.542969 269.976562 523.789062 270.097656 C 533.082031 274.832031 541.636719 280.609375 549.636719 287.300781 C 565.957031 300.910156 579.828125 316.675781 591.203125 334.632812 C 595.136719 340.84375 598.679688 347.273438 601.101562 354.238281 C 601.871094 356.472656 602.828125 358.691406 603.148438 361.035156 C 603.734375 365.289062 604.121094 369.589844 604.550781 373.859375 C 605.445312 382.753906 606.109375 391.660156 606.570312 400.585938 C 607.035156 409.511719 607.480469 418.433594 607.820312 427.375 C 608.207031 437.363281 608.5 447.335938 608.746094 457.320312 C 609.054688 469.730469 609.347656 482.152344 609.40625 494.574219 C 609.453125 503.855469 609.546875 513.117188 609.640625 522.394531 C 609.871094 548.9375 610.5625 575.496094 609.59375 602.035156 C 609.285156 610.421875 608.882812 618.789062 608.28125 627.144531 C 607.804688 633.800781 607.203125 640.429688 606.203125 647.027344 C 605.261719 653.160156 603.628906 659.09375 601.101562 664.765625 C 598.015625 671.734375 593.53125 677.714844 588.105469 683.292969 Z M 278.640625 62.46875 C 278.332031 67.371094 277.964844 72.253906 277.746094 77.15625 C 277.425781 84.878906 277.207031 92.585938 276.976562 100.308594 C 276.761719 107.644531 276.589844 114.964844 276.40625 122.300781 C 276.328125 125.722656 276.546875 129.175781 276.144531 132.550781 C 275.867188 134.894531 276.5625 136.726562 277.578125 138.640625 C 279.382812 142 281.136719 145.359375 282.910156 148.71875 C 286.546875 155.59375 290.339844 162.375 294.148438 169.15625 C 294.609375 169.972656 295.101562 170.3125 296.074219 170.328125 C 297.90625 170.359375 299.695312 170.050781 301.515625 170.035156 C 309.066406 170.003906 316.636719 170.019531 324.1875 169.820312 C 327.71875 169.726562 331.246094 169.683594 334.777344 169.605469 C 335.300781 169.589844 335.886719 169.742188 336.363281 169.1875 C 336.300781 168.679688 336.242188 168.140625 336.179688 167.601562 C 335.902344 165.566406 335.792969 163.53125 336.039062 161.496094 C 336.347656 159.015625 337.320312 156.859375 339.078125 155.039062 C 341.09375 152.957031 343.640625 151.800781 346.257812 150.753906 C 347.214844 150.367188 348.292969 150.261719 349.109375 149.691406 C 349.3125 149.136719 349.25 148.628906 349.21875 148.132812 C 349.019531 145.113281 348.757812 142.109375 348.601562 139.085938 C 348.339844 133.921875 348.171875 128.746094 347.894531 123.566406 C 347.785156 121.640625 347.878906 119.695312 347.738281 117.769531 C 347.324219 112.269531 347.476562 106.75 347.539062 101.230469 C 347.601562 94.726562 347.894531 88.222656 348.214844 81.71875 C 348.386719 78.3125 348.726562 74.90625 349.511719 71.5625 C 350.621094 66.800781 353.304688 63.316406 357.804688 61.28125 C 360.421875 60.09375 363.167969 59.277344 365.988281 58.691406 C 367.820312 58.304688 369.671875 57.953125 371.519531 57.582031 C 340.679688 58.367188 309.867188 58.675781 278.964844 57.90625 C 278.84375 59.417969 278.75 60.789062 278.640625 62.46875 Z M 461.378906 76.832031 C 461.503906 77.867188 461.703125 78.914062 461.734375 79.945312 C 462.089844 88.421875 462.675781 96.902344 462.472656 105.394531 C 462.351562 110.632812 462.414062 115.875 462.210938 121.097656 C 462.011719 126.601562 461.671875 132.105469 461.441406 137.621094 C 461.363281 139.316406 461.210938 141.042969 461.164062 142.738281 C 461.101562 145.035156 460.59375 147.332031 460.902344 149.597656 C 461.363281 150.0625 461.933594 150.105469 462.457031 150.277344 C 464.769531 151.0625 466.988281 151.972656 469.023438 153.359375 C 471.9375 155.347656 473.632812 158.074219 474.003906 161.558594 C 474.1875 163.363281 474.171875 165.195312 473.941406 167.015625 C 473.847656 167.769531 473.570312 168.511719 473.816406 169.480469 C 487.613281 169.945312 501.4375 169.898438 515.21875 170.253906 C 521.566406 159.214844 527.519531 148.074219 533.359375 136.882812 C 533.804688 136.035156 533.976562 135.140625 533.992188 134.183594 C 534.023438 130.824219 533.558594 127.464844 533.714844 124.105469 C 533.761719 123.164062 533.761719 122.226562 533.714844 121.285156 C 533.296875 114.625 533.40625 107.9375 533.113281 101.277344 C 532.820312 94.835938 532.679688 88.378906 532.464844 81.933594 C 532.21875 74.597656 531.726562 67.277344 531.324219 59.957031 C 531.292969 59.261719 531.308594 58.539062 530.894531 57.875 C 515.449219 58.414062 500.066406 58.320312 484.667969 58.304688 C 469.285156 58.304688 453.90625 57.75 438.183594 57.429688 C 439.292969 57.84375 440.109375 57.921875 440.910156 58.074219 C 444.886719 58.769531 448.800781 59.664062 452.472656 61.40625 C 456.753906 63.421875 459.390625 66.753906 460.46875 71.332031 C 460.886719 73.042969 461.210938 74.78125 461.378906 76.832031 Z M 362.96875 35.757812 C 351.714844 35.355469 340.464844 35.21875 329.195312 35.171875 C 318.332031 35.125 307.449219 35.0625 296.582031 35.480469 C 295.625 35.511719 294.902344 35.820312 294.253906 36.496094 C 292.621094 38.207031 290.910156 39.839844 289.339844 41.628906 C 286.132812 45.265625 282.988281 48.949219 280.152344 52.882812 C 279.84375 53.3125 279.382812 53.699219 279.472656 54.375 C 280.320312 54.605469 281.199219 54.59375 282.078125 54.605469 C 289.414062 54.792969 296.753906 54.976562 304.089844 55.148438 C 315.171875 55.410156 326.269531 55.839844 337.351562 55.902344 C 356.109375 56.011719 374.867188 56.164062 393.625 55.746094 C 402.101562 55.5625 410.609375 55.53125 419.101562 55.902344 C 425.496094 56.179688 431.910156 56.011719 438.304688 56.023438 C 456.742188 56.023438 475.175781 56.023438 493.59375 55.46875 C 505.339844 55.117188 517.097656 54.882812 528.84375 54.59375 C 529.429688 54.578125 530.0625 54.683594 530.601562 54.3125 C 530.707031 53.851562 530.367188 53.574219 530.167969 53.28125 C 525.761719 47.117188 520.84375 41.414062 515.371094 36.171875 C 514.957031 35.773438 514.507812 35.527344 513.90625 35.511719 C 512.367188 35.449219 510.824219 35.292969 509.285156 35.277344 C 492.066406 35.125 474.851562 35.078125 457.632812 35.496094 C 445.058594 35.804688 432.480469 36.203125 419.902344 36.574219 C 413.507812 36.757812 407.109375 37.035156 400.699219 36.867188 C 388.230469 36.527344 375.761719 36.125 362.96875 35.757812 Z M 441.375 87.296875 C 440.25 84.246094 438.105469 82.105469 435.238281 80.671875 C 433.757812 79.929688 432.203125 79.359375 430.601562 78.929688 C 422.832031 76.832031 414.863281 76.449219 406.894531 76.046875 C 404.707031 75.9375 402.484375 76.125 400.296875 76.214844 C 396.335938 76.386719 392.390625 76.710938 388.460938 77.203125 C 384.40625 77.710938 380.398438 78.4375 376.5625 79.898438 C 372 81.625 369.085938 84.785156 367.945312 89.59375 C 367.019531 93.480469 366.957031 97.457031 366.820312 101.402344 C 366.695312 104.746094 366.898438 108.121094 366.945312 111.480469 C 367.035156 118.585938 367.207031 125.707031 367.222656 132.8125 C 367.234375 137.175781 367.515625 141.523438 367.4375 145.867188 C 367.4375 146.144531 367.4375 146.421875 367.714844 146.683594 C 367.976562 146.699219 368.316406 146.777344 368.625 146.730469 C 372.554688 146.113281 376.53125 146.113281 380.476562 145.882812 C 384.160156 145.683594 387.859375 145.558594 391.558594 145.542969 C 395.257812 145.542969 398.941406 145.851562 402.640625 145.835938 C 403.671875 145.835938 404.691406 146.207031 405.753906 146.085938 C 408.992188 145.683594 412.226562 145.683594 415.480469 145.589844 C 421.707031 145.4375 427.933594 145.808594 434.144531 146.128906 C 436.566406 146.253906 438.984375 146.347656 441.375 146.730469 C 441.726562 146.792969 442.144531 146.871094 442.484375 146.453125 C 442.5 146.300781 442.542969 146.085938 442.542969 145.867188 C 442.851562 140.367188 442.636719 134.847656 442.867188 129.332031 C 443.085938 124.214844 443.054688 119.082031 443.128906 113.964844 C 443.222656 107.90625 443.453125 101.847656 442.929688 95.792969 C 442.730469 92.96875 442.4375 90.195312 441.375 87.296875 Z M 455.089844 67.261719 C 453.363281 65.105469 450.960938 63.976562 448.496094 62.992188 C 443.394531 60.972656 438.027344 59.957031 432.648438 59.046875 C 428.210938 58.289062 423.726562 57.734375 419.242188 57.273438 C 415.140625 56.859375 411.023438 56.625 406.910156 56.441406 C 404.550781 56.332031 402.179688 56.457031 399.820312 56.625 C 396.753906 56.859375 393.667969 57.027344 390.601562 57.304688 C 383.804688 57.9375 377.054688 58.9375 370.378906 60.386719 C 366.558594 61.21875 362.796875 62.296875 359.238281 63.992188 C 355.429688 65.8125 353.363281 68.773438 352.777344 72.949219 C 352.300781 76.292969 352.191406 79.621094 352.164062 82.984375 C 352.085938 93.570312 352.457031 104.175781 352.238281 114.765625 C 352.054688 123.875 352.207031 132.96875 352.207031 142.078125 C 352.207031 144.113281 352.609375 146.128906 352.5 148.179688 C 352.484375 148.394531 352.609375 148.597656 353.011719 148.828125 C 356.664062 148.117188 360.5 147.546875 364.277344 147.070312 C 364.585938 146.546875 364.492188 146.101562 364.492188 145.667969 C 364.632812 139.828125 364.507812 133.984375 364.664062 128.128906 C 364.894531 119.527344 364.664062 110.910156 364.941406 102.3125 C 365.046875 98.84375 365.292969 95.390625 365.804688 91.953125 C 366.820312 85.003906 370.425781 80.285156 377.347656 78.34375 C 377.5 78.296875 377.671875 78.25 377.824219 78.203125 C 383.804688 76.507812 389.957031 76.03125 396.121094 75.769531 C 401.066406 75.570312 406.03125 75.523438 411.007812 75.691406 C 416.019531 75.847656 421.011719 76.15625 425.976562 76.878906 C 429.257812 77.355469 432.480469 78.066406 435.53125 79.421875 C 438.847656 80.902344 441.3125 83.230469 442.730469 86.605469 C 443.253906 87.882812 443.609375 89.210938 443.949219 90.550781 C 445.042969 95.019531 444.996094 99.613281 445.179688 104.160156 C 445.425781 110.046875 445.304688 115.953125 445.425781 121.855469 C 445.566406 129.023438 445.472656 136.203125 445.488281 143.386719 C 445.488281 144.589844 445.597656 145.792969 445.671875 147.070312 C 449.652344 147.519531 453.488281 148.148438 457.371094 148.84375 C 457.511719 147.425781 457.695312 146.175781 457.726562 144.929688 C 457.972656 136.542969 458.003906 128.160156 457.867188 119.773438 C 457.679688 108.953125 457.804688 98.148438 457.894531 87.328125 C 457.925781 82.984375 458.234375 78.605469 457.496094 74.289062 C 457.078125 71.902344 456.785156 69.464844 455.089844 67.261719 Z M 559.945312 92.96875 C 559.945312 88.992188 559.992188 85.015625 559.929688 81.054688 C 559.839844 74.550781 560.222656 68.046875 559.53125 61.558594 C 559.332031 59.617188 559.390625 59.617188 557.34375 59.277344 C 557.019531 59.230469 556.710938 59.109375 556.371094 59.0625 C 549.667969 58.183594 542.960938 57.289062 536.257812 56.457031 C 535.484375 56.363281 534.652344 56.023438 533.730469 56.503906 C 535.023438 82.828125 534.222656 109.183594 534.5 135.601562 C 542.605469 136.992188 550.558594 138.300781 558.511719 139.566406 C 558.652344 139.148438 558.761719 138.949219 558.789062 138.730469 C 559.332031 134.910156 559.546875 131.054688 559.730469 127.21875 C 559.992188 121.933594 559.976562 116.628906 560.117188 111.34375 C 560.285156 105.332031 559.914062 99.320312 559.945312 92.96875 Z M 250.480469 130.007812 C 250.789062 133.121094 250.804688 136.28125 251.46875 139.578125 C 259.542969 138.269531 267.589844 137.019531 275.699219 135.542969 C 275.375 109.246094 275.160156 83.167969 276.296875 57.089844 C 276.296875 56.917969 276.269531 56.765625 276.253906 56.59375 C 276.238281 56.550781 276.191406 56.503906 276.160156 56.457031 C 276.128906 56.410156 276.082031 56.378906 276.050781 56.347656 C 273.308594 56.289062 252.085938 59.183594 250.789062 59.816406 C 250.4375 61.621094 250.25 63.484375 250.234375 65.335938 C 250.171875 74.8125 250.144531 84.308594 250.050781 93.789062 C 249.941406 105.761719 249.835938 117.738281 250.480469 130.007812 Z M 426.007812 241.691406 C 426.160156 237.824219 425.714844 233.984375 425.746094 230.117188 C 425.804688 220.191406 425.683594 210.25 425.992188 200.324219 C 426.082031 197.226562 425.945312 194.128906 426.253906 191.074219 C 426.609375 194.621094 426.53125 198.210938 426.453125 201.789062 C 426.269531 209.957031 426.222656 218.109375 426.421875 226.277344 C 426.578125 232.738281 426.636719 239.179688 426.714844 245.636719 C 426.746094 247.347656 426.714844 249.058594 426.730469 250.769531 C 426.730469 251.25 426.609375 251.757812 426.976562 252.3125 C 427.824219 252.496094 428.765625 252.402344 429.691406 252.390625 C 430.617188 252.390625 431.554688 252.496094 432.664062 252.234375 C 431.894531 233.167969 431.832031 214.148438 432.171875 195.113281 C 432.125 198.582031 432.386719 202.050781 432.433594 205.53125 C 432.496094 210.820312 432.355469 216.121094 432.589844 221.410156 C 432.835938 227.082031 432.679688 232.769531 432.910156 238.441406 C 433.097656 242.894531 433.21875 247.363281 433.375 251.820312 C 433.375 251.957031 433.496094 252.109375 433.558594 252.234375 C 436.117188 252.496094 446.785156 252.265625 447.894531 251.941406 C 448.0625 251.511719 447.96875 251.078125 447.953125 250.632812 C 447.722656 243.511719 447.769531 236.390625 447.664062 229.285156 C 447.445312 216.152344 447.601562 203.003906 447.585938 189.871094 C 447.585938 189.226562 447.707031 188.5625 447.445312 187.945312 C 445.535156 187.636719 441.898438 187.699219 440.632812 188.085938 C 440.632812 188.59375 440.648438 189.148438 440.632812 189.6875 C 440.527344 192.445312 440.847656 195.207031 440.863281 197.964844 C 440.941406 212.808594 441.050781 227.664062 440.847656 242.507812 C 440.835938 243.972656 440.632812 245.421875 440.527344 246.886719 C 440.308594 245.390625 440.324219 243.894531 440.308594 242.402344 C 440.292969 237.328125 440.558594 232.242188 440.449219 227.171875 C 440.25 217.910156 440.464844 208.628906 440.078125 199.367188 C 439.941406 195.835938 439.957031 192.308594 439.910156 188.777344 C 439.910156 188.515625 439.957031 188.222656 439.570312 187.792969 C 433.21875 187.882812 426.714844 187.34375 420.117188 187.621094 C 420.117188 188.5625 420.042969 189.289062 420.132812 189.980469 C 420.425781 192.339844 420.351562 194.710938 420.351562 197.085938 C 420.351562 204.144531 420.394531 211.203125 420.488281 218.28125 C 420.613281 229.039062 420.628906 239.796875 420.703125 250.554688 C 420.703125 251.140625 420.535156 251.773438 420.996094 252.386719 C 422.585938 252.496094 424.203125 252.574219 426.023438 252.296875 C 426.007812 248.84375 426.007812 245.4375 426.007812 241.691406 Z M 377.71875 202.605469 C 377.71875 199.953125 377.71875 197.300781 377.71875 194.652344 C 377.839844 194.652344 377.964844 194.636719 378.101562 194.636719 C 378.378906 195.160156 378.257812 195.746094 378.257812 196.316406 C 378.289062 202.050781 378.085938 207.78125 378.054688 213.515625 C 378.011719 223.117188 378.054688 232.722656 377.734375 242.308594 C 377.625 245.222656 377.855469 248.148438 377.394531 251.0625 C 377.332031 251.464844 377.238281 251.957031 377.75 252.386719 C 379.488281 252.386719 381.339844 252.511719 383.1875 252.296875 C 383.234375 251.847656 383.265625 251.585938 383.28125 251.308594 C 383.421875 242.324219 383.589844 233.324219 383.667969 224.335938 C 383.726562 216.890625 383.621094 209.433594 383.699219 201.988281 C 383.726562 198.394531 383.464844 194.820312 383.449219 191.246094 C 383.449219 190.875 383.1875 190.335938 383.898438 190.164062 C 384.175781 200.554688 384.207031 210.910156 384.269531 221.285156 C 384.328125 231.628906 383.914062 241.96875 384.003906 252.375 C 385.839844 252.496094 387.472656 252.558594 389.0625 252.375 C 389.402344 250.167969 389.925781 188.6875 389.617188 187.605469 C 383.25 187.421875 376.871094 187.898438 370.457031 187.808594 C 370.394531 188.175781 370.351562 188.394531 370.335938 188.59375 C 369.871094 192.878906 370.011719 197.195312 369.917969 201.496094 C 369.6875 212.636719 369.59375 223.78125 369.65625 234.941406 C 369.671875 238.640625 369.78125 242.339844 369.855469 246.023438 C 369.871094 246.484375 369.996094 247.007812 369.53125 247.410156 C 369.316406 243.449219 369.238281 239.472656 369.210938 235.542969 C 369.117188 223.734375 368.902344 211.929688 369.347656 200.105469 C 369.488281 196.253906 369.253906 192.386719 369.488281 188.515625 C 369.503906 188.300781 369.457031 188.070312 369.253906 187.929688 C 367.035156 187.929688 364.800781 187.929688 362.550781 187.929688 C 362.78125 209.386719 362.367188 230.71875 362.148438 252.21875 C 367.066406 252.21875 371.78125 252.21875 376.515625 252.21875 C 376.5625 252.050781 376.652344 251.894531 376.652344 251.742188 C 376.886719 246.625 377.148438 241.507812 377.316406 236.390625 C 377.425781 233.351562 377.46875 230.316406 377.457031 227.296875 C 377.425781 219.15625 377.734375 211.050781 377.71875 202.605469 Z M 320.179688 270.375 C 322.601562 271.300781 325.097656 272.023438 327.609375 272.65625 C 333.882812 274.246094 340.261719 275.152344 346.675781 275.847656 C 350.621094 276.277344 354.582031 276.863281 358.527344 276.878906 C 368.347656 276.910156 378.164062 277.15625 387.984375 276.742188 C 393.097656 276.527344 398.230469 276.601562 403.347656 276.324219 C 406.617188 276.15625 409.929688 276.355469 413.214844 276.570312 C 417.34375 276.832031 421.476562 276.773438 425.605469 276.910156 C 432.835938 277.140625 440.0625 276.972656 447.292969 276.941406 C 449.496094 276.941406 451.699219 276.925781 453.90625 276.742188 C 461.488281 276.140625 469.054688 275.339844 476.546875 273.953125 C 482.035156 272.933594 487.414062 271.53125 492.5625 269.296875 C 492.945312 269.128906 493.578125 269.144531 493.640625 268.449219 C 483.945312 267.214844 474.25 266.769531 464.539062 266.414062 C 448.371094 265.8125 432.203125 265.984375 416.035156 266.058594 C 411.023438 266.089844 406.03125 266.445312 401.023438 266.246094 C 392.359375 265.90625 383.699219 266.042969 375.035156 266.015625 C 357.695312 265.953125 340.386719 266.277344 323.109375 267.726562 C 320.890625 267.910156 318.667969 268.1875 316.402344 268.433594 C 316.511719 268.679688 316.527344 268.835938 316.605469 268.867188 C 317.714844 269.34375 318.824219 269.820312 320.179688 270.375 Z M 409.636719 146.53125 C 395.597656 146.285156 381.632812 147.238281 367.589844 149.320312 C 367.699219 155.824219 367.804688 162.191406 367.898438 168.757812 C 376.285156 168.527344 384.484375 168.277344 392.699219 168.09375 C 400.914062 167.910156 409.128906 167.894531 417.359375 168.09375 C 425.558594 168.277344 433.757812 168.527344 441.929688 168.757812 C 442.238281 167.339844 442.53125 150.199219 442.28125 149.289062 C 442.097656 149.257812 441.882812 149.199219 441.667969 149.183594 C 436.378906 148.488281 431.09375 147.855469 425.777344 147.425781 C 420.519531 146.976562 415.25 146.683594 409.636719 146.53125 Z M 383.40625 264.394531 C 384.285156 264.472656 385.160156 264.609375 386.039062 264.625 C 390.617188 264.703125 395.164062 265.167969 399.742188 265.367188 C 401.992188 265.460938 404.242188 265.84375 406.507812 265.675781 C 410.578125 265.382812 414.632812 265.027344 418.699219 264.8125 C 424.09375 264.519531 429.488281 264.304688 434.898438 264.085938 C 442.066406 263.792969 449.234375 263.484375 456.417969 263.378906 C 466.789062 263.238281 477.164062 263.363281 487.535156 264.039062 C 491.21875 264.273438 494.933594 264.410156 498.585938 264.964844 C 500.421875 265.242188 501.609375 264.503906 502.78125 263.425781 C 502.671875 263.054688 502.410156 263.070312 502.226562 263.007812 C 497.167969 261.082031 491.976562 259.664062 486.71875 258.460938 C 484.53125 257.96875 482.355469 257.351562 480.0625 257.414062 C 462.289062 257.875 444.519531 257.859375 426.746094 258.03125 C 403.394531 258.246094 380.042969 258.074219 356.710938 257.796875 C 348.757812 257.707031 340.816406 257.582031 332.863281 257.503906 C 331.109375 257.492188 329.320312 257.199219 327.578125 257.550781 C 321.535156 258.816406 315.554688 260.3125 309.730469 262.34375 C 308.945312 262.621094 308.15625 262.929688 307.277344 263.253906 C 308.652344 264.703125 310.007812 265.304688 311.855469 264.917969 C 313.460938 264.582031 315.140625 264.519531 316.789062 264.425781 C 324.773438 263.964844 332.757812 263.425781 340.773438 263.363281 C 349.820312 263.300781 358.882812 263.457031 367.929688 263.761719 C 372.9375 263.917969 378.011719 264.164062 383.40625 264.394531 Z M 277.59375 139.75 C 277.101562 138.855469 276.777344 137.867188 276.050781 136.929688 C 269.054688 144.542969 262.179688 152.035156 255.199219 159.632812 C 265.894531 169.359375 276.945312 178.207031 289.429688 185.046875 C 289.675781 184.800781 289.800781 184.742188 289.832031 184.648438 C 290.941406 181.070312 292.003906 177.480469 293.144531 173.921875 C 293.667969 172.285156 293.5 170.929688 292.636719 169.328125 C 287.378906 159.664062 282.464844 149.859375 277.59375 139.75 Z M 521.753906 161.1875 C 519.964844 164.59375 518.175781 168 516.359375 171.5 C 517.5 175.96875 518.855469 180.488281 520.472656 185.15625 C 533.203125 178.097656 544.347656 169.28125 554.921875 159.539062 C 547.753906 152.09375 541.035156 144.449219 533.914062 136.835938 C 529.9375 145.066406 525.976562 153.066406 521.753906 161.1875 Z M 513.058594 184.632812 C 515.15625 184.769531 517.285156 183.96875 519.535156 185.046875 C 518.117188 180.5 516.992188 176.140625 515.910156 171.761719 C 515.742188 171.101562 515.386719 170.835938 514.753906 170.835938 C 514.261719 170.835938 513.769531 170.824219 513.261719 170.824219 C 501.070312 170.882812 488.875 170.945312 476.683594 171.007812 C 475.960938 171.007812 475.25 170.992188 474.527344 171.023438 C 474.09375 171.039062 473.632812 170.914062 473.125 171.363281 C 471.921875 176.539062 468.175781 179.113281 463.074219 179.976562 C 463.214844 180.6875 463.707031 180.777344 464.03125 181.042969 C 465.21875 181.949219 466.375 182.9375 467.066406 184.277344 C 467.714844 185.511719 468.609375 185.726562 469.871094 185.695312 C 480.570312 185.402344 491.28125 185.171875 501.976562 184.910156 C 505.570312 184.816406 509.160156 184.894531 513.058594 184.632812 Z M 297.058594 170.824219 C 296.195312 170.882812 295.304688 170.667969 294.347656 171.070312 C 293.253906 175.707031 291.914062 180.316406 290.757812 185.019531 C 291.648438 184.339844 292.589844 184.402344 293.53125 184.492188 C 294.195312 184.554688 294.855469 184.554688 295.519531 184.585938 C 302.964844 184.972656 310.40625 184.878906 317.851562 185.09375 C 325.296875 185.3125 332.742188 185.464844 340.1875 185.695312 C 341.449219 185.742188 342.34375 185.558594 343.007812 184.292969 C 343.746094 182.875 345.027344 181.84375 346.320312 180.871094 C 346.597656 180.671875 347.058594 180.546875 346.96875 179.945312 C 341.804688 179.097656 338.136719 176.433594 336.855469 170.976562 C 323.617188 171.191406 310.5 170.746094 297.058594 170.824219 Z M 405.539062 252.140625 C 407.757812 252.667969 410.023438 252.402344 412.273438 252.464844 C 412.691406 252.480469 413.152344 252.589844 413.492188 252.265625 C 413.707031 251.925781 413.660156 251.585938 413.660156 251.261719 C 413.566406 245.808594 413.769531 240.351562 413.507812 234.878906 C 413.261719 229.59375 413.492188 224.289062 413.230469 219.003906 C 413.058594 215.8125 413.058594 212.605469 413.058594 209.417969 C 413.058594 202.527344 412.628906 195.636719 412.78125 188.730469 C 412.796875 188.316406 412.9375 187.855469 412.441406 187.359375 C 410.222656 187.421875 407.894531 186.898438 405.382812 187.269531 C 405.382812 187.976562 405.382812 188.625 405.382812 189.289062 C 405.382812 203.851562 405.382812 218.417969 405.382812 232.984375 C 405.382812 239.273438 405.398438 245.5625 405.539062 252.140625 Z M 396.828125 216.847656 C 396.644531 228.683594 396.429688 240.503906 396.535156 252.417969 C 399.328125 252.511719 401.902344 252.511719 404.382812 252.265625 C 404.765625 251.789062 404.660156 251.324219 404.707031 250.894531 C 405.042969 247.6875 404.597656 244.496094 404.597656 241.304688 C 404.582031 230.054688 404.765625 218.789062 404.597656 207.535156 C 404.503906 201.355469 404.628906 195.175781 404.8125 188.996094 C 404.828125 188.410156 405 187.777344 404.566406 187.191406 C 402.222656 186.992188 399.914062 187.3125 397.429688 187.421875 C 397.554688 189.734375 397.183594 191.875 397.214844 194.019531 C 397.355469 201.355469 396.8125 208.691406 396.890625 216.027344 C 396.90625 216.183594 396.875 216.351562 396.828125 216.847656 Z M 348.742188 234.742188 C 348.894531 240.074219 348.292969 245.40625 348.570312 250.707031 C 350.714844 251.773438 352.777344 252.605469 355.277344 251.972656 C 354.9375 230.609375 354.953125 209.308594 355.261719 187.976562 C 352.964844 187.976562 350.914062 187.976562 348.769531 187.976562 C 349.140625 203.527344 348.710938 218.972656 348.742188 234.742188 Z M 461.226562 224.800781 C 461.195312 212.605469 461.179688 200.414062 461.148438 188.222656 C 461.148438 188.175781 461.117188 188.117188 461.085938 188.085938 C 461.054688 188.039062 461.011719 188.007812 460.917969 187.914062 C 458.960938 187.914062 456.941406 187.914062 454.859375 187.914062 C 454.644531 189.871094 454.859375 191.722656 454.875 193.585938 C 454.984375 202.1875 454.984375 210.804688 455.089844 219.40625 C 455.136719 223.273438 454.953125 227.125 454.921875 230.980469 C 454.875 237.4375 455.03125 243.894531 454.78125 250.339844 C 454.769531 250.910156 454.597656 251.554688 455.03125 252.066406 C 457.417969 252.480469 459.515625 251.804688 461.503906 250.648438 C 461.582031 242.109375 461.289062 233.617188 461.226562 224.800781 Z M 364.507812 158.863281 C 364.507812 157.367188 364.523438 155.886719 364.492188 154.390625 C 364.460938 152.882812 364.632812 151.355469 364.371094 149.769531 C 359.128906 150.707031 354.105469 151.617188 349.25 153.3125 C 347 154.097656 344.824219 155.007812 342.867188 156.394531 C 340.910156 157.796875 340.046875 159.726562 339.910156 162.035156 C 339.785156 163.871094 340 165.675781 340.339844 167.460938 C 340.464844 168.078125 340.449219 168.804688 341.125 169.390625 C 348.878906 169.203125 356.738281 169.019531 364.492188 168.835938 C 364.507812 165.472656 364.507812 162.328125 364.507812 158.863281 Z M 445.566406 160.542969 C 445.566406 163.238281 445.566406 165.921875 445.566406 168.632812 C 446.660156 168.972656 467.667969 169.480469 469.285156 169.171875 C 470.089844 166.492188 470.382812 163.71875 470.011719 160.910156 C 469.828125 159.523438 469.195312 158.324219 468.175781 157.304688 C 466.527344 155.65625 464.492188 154.714844 462.382812 153.898438 C 458.21875 152.265625 453.859375 151.308594 449.464844 150.476562 C 448.246094 150.246094 447.03125 149.875 445.566406 149.921875 C 445.566406 153.390625 445.566406 156.8125 445.566406 160.542969 Z M 414.402344 249.628906 C 414.460938 250.539062 414.277344 251.480469 414.601562 252.359375 C 416.589844 252.359375 418.484375 252.359375 420.351562 252.359375 C 420.582031 251.695312 420.550781 251.140625 420.488281 250.601562 C 419.996094 246.421875 420.410156 242.230469 420.132812 238.039062 C 419.8125 233.089844 420.164062 228.128906 419.902344 223.164062 C 419.59375 217.386719 419.902344 211.589844 419.6875 205.792969 C 419.472656 200.121094 419.65625 194.433594 419.394531 188.761719 C 419.378906 188.394531 419.472656 187.976562 419.039062 187.578125 C 417.175781 187.578125 415.234375 187.097656 413.230469 187.4375 C 413.183594 187.652344 413.121094 187.808594 413.136719 187.960938 C 413.492188 195.066406 413.398438 202.171875 413.691406 209.277344 C 413.90625 214.78125 414.0625 220.296875 414.09375 225.800781 C 414.136719 231.980469 414.523438 238.148438 414.402344 244.328125 C 414.371094 245.992188 414.402344 247.640625 414.402344 249.628906 Z M 396.675781 194.128906 C 396.9375 191.890625 397.015625 189.671875 396.769531 187.375 C 394.703125 187.238281 392.808594 187.484375 390.957031 187.667969 C 390.710938 188.222656 390.601562 188.703125 390.601562 189.210938 C 390.585938 193.277344 390.464844 197.363281 390.371094 201.433594 C 390.171875 210.527344 390.21875 219.636719 390.171875 228.746094 C 390.171875 229.128906 390.140625 229.515625 390.140625 229.902344 C 389.984375 236.390625 389.816406 242.878906 389.679688 249.367188 C 389.664062 250.339844 389.570312 251.339844 389.800781 252.433594 C 391.726562 252.464844 393.578125 252.542969 395.351562 252.375 C 395.6875 251.863281 395.597656 251.417969 395.582031 250.984375 C 395.457031 244.3125 396.027344 237.636719 395.875 230.964844 C 395.859375 230.515625 395.890625 230.085938 395.90625 229.640625 C 396.152344 223.132812 396.183594 216.644531 396.492188 210.140625 C 396.707031 204.917969 396.613281 199.675781 396.675781 194.128906 Z M 448.277344 223.8125 C 448.324219 233.261719 448.632812 242.710938 448.847656 252.25 C 450.652344 252.1875 452.238281 252.433594 453.949219 252.003906 C 453.917969 248.703125 454.152344 245.46875 454.152344 242.230469 C 454.121094 234.125 454.550781 226.03125 454.476562 217.925781 C 454.414062 210.15625 454.476562 202.371094 454.460938 194.589844 C 454.460938 193.496094 454.414062 192.386719 454.273438 191.289062 C 454.136719 190.164062 454.429688 188.996094 453.949219 187.839844 C 452.007812 187.824219 450.113281 187.730469 448.15625 187.882812 C 448.09375 199.875 448.09375 211.683594 448.277344 223.8125 Z M 361.839844 187.898438 C 359.867188 187.699219 357.910156 187.777344 355.96875 187.882812 C 355.320312 191.832031 355.753906 249.582031 356.445312 252.097656 C 357.957031 252.28125 359.46875 252.28125 361.070312 252.140625 C 361.316406 251.046875 361.394531 250.015625 361.394531 248.980469 C 361.425781 244.511719 361.550781 240.058594 361.609375 235.589844 C 361.71875 226.601562 361.964844 217.617188 361.855469 208.628906 C 361.839844 206.765625 361.996094 204.886719 362.011719 203.003906 C 362.058594 198.058594 362.042969 193.109375 361.839844 187.898438 Z M 348.464844 199.953125 C 348.464844 198.628906 348.464844 197.300781 348.464844 195.976562 C 348.464844 194.605469 348.507812 193.21875 348.464844 191.847656 C 348.417969 190.550781 348.769531 189.226562 348.324219 187.871094 C 346.707031 187.871094 345.179688 187.746094 343.625 187.976562 C 343.40625 188.53125 343.160156 189.039062 343.023438 189.566406 C 342.34375 192.355469 341.914062 195.191406 341.929688 198.058594 C 342.019531 211.296875 342.175781 224.539062 342.265625 237.777344 C 342.28125 240.105469 342.5 242.402344 342.882812 244.683594 C 343.347656 247.410156 344.933594 249.167969 347.523438 250.152344 C 347.910156 249.550781 347.785156 248.980469 347.800781 248.457031 C 347.984375 241.292969 347.953125 234.125 348.125 226.957031 C 348.339844 218.046875 348.355469 209.171875 348.464844 199.953125 Z M 467.621094 241.847656 C 467.882812 234.355469 468.023438 226.847656 468.039062 219.34375 C 468.039062 213.824219 468.007812 208.308594 468.207031 202.789062 C 468.347656 198.875 468.144531 194.960938 467.375 191.105469 C 467.160156 190.042969 467.003906 188.933594 466.328125 187.871094 C 464.863281 187.855469 463.351562 187.761719 461.765625 187.929688 C 461.765625 188.792969 461.765625 189.441406 461.765625 190.105469 C 461.703125 204.113281 461.8125 218.140625 461.996094 232.152344 C 462.058594 236.558594 462.105469 240.984375 462.210938 245.390625 C 462.242188 246.949219 462.429688 248.488281 462.535156 250.136719 C 465.203125 249.089844 466.699219 247.347656 467.160156 244.726562 C 467.328125 243.878906 467.453125 243.015625 467.621094 241.847656 Z M 557.925781 139.933594 C 550.777344 138.996094 543.625 138.039062 536.472656 137.097656 C 536.410156 137.222656 536.347656 137.34375 536.273438 137.46875 C 542.484375 144.683594 548.632812 151.941406 555.015625 159.015625 C 555.398438 158.660156 555.476562 158.351562 555.539062 158.015625 C 555.785156 156.71875 556.046875 155.441406 556.277344 154.128906 C 557.035156 149.90625 557.773438 145.699219 558.496094 141.476562 C 558.605469 140.953125 558.820312 140.367188 557.925781 139.933594 Z M 259.019531 154.5 C 259.175781 154.34375 259.34375 154.191406 259.484375 154.023438 C 263.519531 149.367188 267.558594 144.710938 271.566406 140.027344 C 272.320312 139.132812 273.230469 138.347656 273.894531 137.019531 C 266.28125 138.054688 258.929688 139.039062 251.589844 140.027344 C 251.46875 142.078125 254.226562 157.382812 254.980469 158.9375 C 256.414062 157.628906 257.617188 156.132812 259.019531 154.5 Z M 439.632812 183.398438 C 439.570312 182.042969 439.769531 180.671875 439.476562 179.222656 C 432.972656 178.851562 426.515625 178.527344 419.964844 178.527344 C 419.75 181.320312 420.257812 183.863281 420.117188 186.542969 C 426.761719 186.699219 433.203125 186.558594 439.632812 186.25 C 439.648438 185.265625 439.648438 184.492188 439.632812 183.398438 Z M 375.019531 186.40625 C 376.667969 186.464844 378.320312 186.542969 379.96875 186.574219 C 381.617188 186.605469 383.265625 186.621094 384.929688 186.574219 C 386.550781 186.527344 388.199219 186.757812 389.878906 186.421875 C 390.21875 183.785156 389.894531 181.226562 390.171875 178.527344 C 383.527344 178.527344 377.070312 178.851562 370.550781 179.238281 C 370.488281 180.578125 370.394531 181.71875 370.378906 182.859375 C 370.367188 184 370.148438 185.15625 370.582031 186.390625 C 371.953125 186.390625 373.339844 186.390625 375.019531 186.40625 Z M 438.582031 173.519531 C 439.679688 173.550781 440.757812 173.71875 441.898438 173.550781 C 442.097656 172.796875 442.082031 172.117188 441.945312 171.4375 C 439.847656 171.070312 369.503906 171.128906 368.097656 171.5 C 368.039062 172.179688 367.882812 172.871094 368.253906 173.550781 C 369.070312 173.550781 369.839844 173.582031 370.613281 173.550781 C 378.65625 173.089844 386.703125 172.8125 394.765625 172.855469 C 399.789062 172.886719 404.796875 172.917969 409.824219 172.871094 C 419.300781 172.796875 428.796875 172.933594 438.582031 173.519531 Z M 361.933594 171.253906 C 358.527344 171.238281 355.105469 171.222656 351.699219 171.207031 C 348.339844 171.191406 344.980469 170.960938 341.527344 171.144531 C 342.25 173.089844 342.527344 173.441406 343.960938 174.152344 C 345.84375 175.078125 347.847656 175.382812 349.898438 175.246094 C 353.132812 175.03125 356.371094 174.753906 359.589844 174.445312 C 361.269531 174.273438 362.980469 174.257812 364.679688 173.859375 C 364.816406 172.980469 364.800781 172.195312 364.601562 171.421875 C 363.785156 171.128906 363.011719 171.300781 361.933594 171.253906 Z M 450.234375 174.429688 C 453.582031 174.722656 456.925781 175.136719 460.300781 175.261719 C 462.320312 175.339844 464.261719 175.015625 466.097656 174.183594 C 467.34375 173.613281 468.207031 172.703125 468.46875 171.285156 C 460.734375 171.285156 453.117188 171.285156 445.628906 171.285156 C 445.273438 171.855469 445.351562 172.253906 445.320312 172.625 C 445.289062 173.058594 445.132812 173.503906 445.597656 173.964844 C 446.96875 174.089844 448.449219 174.242188 450.234375 174.429688 Z M 492.777344 258.753906 C 496.445312 259.539062 500.035156 260.542969 503.597656 261.730469 C 504.429688 262.007812 505.046875 261.945312 505.691406 261.375 C 506.726562 260.464844 507.820312 259.617188 508.851562 258.707031 C 509.453125 258.183594 510.117188 257.707031 510.6875 256.71875 C 502.839844 257.042969 495.273438 257.011719 487.722656 257.492188 C 489.277344 258.183594 490.941406 258.199219 492.777344 258.753906 Z M 307.109375 261.496094 C 312.042969 259.910156 317.097656 258.785156 322.445312 257.613281 C 320.535156 257.121094 300.636719 256.6875 299.511719 257.074219 C 300.960938 258.539062 302.546875 259.800781 304.074219 261.144531 C 304.96875 261.929688 305.816406 262.175781 307.109375 261.496094 Z M 397.554688 180.472656 C 397.398438 182.476562 397.367188 184.476562 397.523438 186.464844 C 400.050781 186.464844 402.378906 186.464844 404.75 186.464844 C 405.03125 183.769531 404.535156 181.257812 404.503906 178.667969 C 402.132812 178.574219 399.957031 178.421875 397.847656 178.605469 C 397.476562 179.160156 397.660156 179.667969 397.554688 180.472656 Z M 411.273438 178.527344 C 409.421875 178.542969 407.558594 178.46875 405.601562 178.730469 C 405.199219 181.347656 405.367188 183.894531 405.429688 186.480469 C 407.878906 186.480469 410.160156 186.480469 412.519531 186.480469 C 412.519531 183.96875 412.519531 181.566406 412.519531 179.160156 C 412.535156 178.511719 412.042969 178.527344 411.273438 178.527344 Z M 390.832031 182.414062 C 390.832031 183.769531 390.832031 185.109375 390.832031 186.621094 C 392.960938 186.527344 394.855469 186.730469 396.738281 186.480469 C 397.152344 183.800781 397.554688 181.242188 396.984375 178.652344 C 394.734375 178.375 392.191406 178.453125 391.050781 178.820312 C 390.988281 179.902344 390.925781 180.996094 390.832031 182.414062 Z M 353.164062 180.132812 C 351.34375 180.023438 349.695312 180.441406 348.261719 181.65625 C 346.9375 182.78125 345.613281 183.878906 344.609375 185.804688 C 346.242188 185.542969 347.691406 186.621094 348.726562 185.109375 C 348.664062 185.679688 348.988281 185.925781 349.695312 185.910156 C 351.128906 185.882812 352.5625 185.941406 353.996094 185.925781 C 354.472656 185.925781 355 186.113281 355.507812 185.558594 C 355.507812 183.878906 355.507812 182.074219 355.507812 180.195312 C 354.859375 179.917969 354.136719 180.085938 353.164062 180.132812 Z M 440.894531 186.234375 C 443.085938 186.21875 445.257812 186.1875 447.554688 186.171875 C 447.601562 183.90625 447.539062 181.84375 447.753906 179.699219 C 445.210938 179.5625 442.882812 179.4375 440.480469 179.300781 C 440.171875 181.65625 440.480469 183.832031 440.894531 186.234375 Z M 419.132812 179.515625 C 419.054688 179.082031 418.976562 178.558594 418.421875 178.558594 C 416.574219 178.527344 414.722656 178.542969 412.628906 178.542969 C 413.367188 181.304688 412.890625 183.878906 413.167969 186.496094 C 415.265625 186.496094 417.265625 186.496094 419.441406 186.496094 C 419.070312 184.199219 419.164062 182.011719 419.132812 179.515625 Z M 460.808594 185.882812 C 461.640625 185.632812 460.824219 184.523438 461.640625 184.199219 C 461.886719 184.753906 461.609375 185.371094 462.011719 185.851562 C 463.105469 185.835938 464.183594 185.988281 465.28125 185.589844 C 464.769531 184.339844 463.921875 183.492188 463.058594 182.644531 C 460.6875 180.300781 457.804688 179.730469 454.550781 180.238281 C 454.445312 182.167969 454.367188 184.015625 454.9375 185.925781 C 456.800781 185.910156 458.652344 185.910156 460.808594 185.882812 Z M 364.277344 179.59375 C 363.691406 179.667969 363.074219 179.453125 362.472656 179.855469 C 362.472656 181.90625 362.472656 183.953125 362.472656 186.160156 C 364.863281 186.160156 367.128906 186.160156 369.457031 186.160156 C 369.457031 183.863281 369.457031 181.625 369.457031 179.359375 C 367.746094 179.238281 366.171875 179.578125 364.277344 179.59375 Z M 454.199219 184.324219 C 454.289062 182.90625 454.199219 181.503906 453.75 180.070312 C 451.902344 179.839844 450.082031 179.761719 448.261719 179.808594 C 447.96875 182.152344 448.046875 184.972656 448.464844 186.171875 C 450.3125 186.144531 452.207031 186.21875 454.105469 185.957031 C 454.152344 185.386719 454.167969 185.003906 454.199219 184.324219 Z M 361.980469 183.230469 C 361.902344 182.089844 361.839844 180.964844 361.765625 179.730469 C 359.824219 179.886719 357.972656 179.746094 356.0625 180.132812 C 356.0625 182.089844 356.0625 183.9375 356.0625 185.988281 C 358.019531 186.175781 359.992188 186.234375 361.980469 186.097656 C 362.257812 185.140625 362.164062 184.339844 361.980469 183.230469 Z M 518.300781 272.640625 C 519.070312 273.027344 519.75 273.597656 520.597656 273.828125 C 521.011719 273.195312 521.320312 272.625 521.367188 271.964844 C 521.058594 271.5 520.566406 271.347656 520.148438 271.117188 C 515.851562 268.789062 511.410156 266.738281 506.894531 264.828125 C 505.414062 264.195312 504.984375 264.347656 504.011719 265.859375 C 504.597656 266.027344 505.183594 266.183594 505.738281 266.367188 C 507.3125 266.878906 508.914062 267.308594 510.363281 268.109375 C 512.9375 269.558594 515.511719 271.054688 518.300781 272.640625 Z M 300.359375 266.042969 C 296.382812 267.800781 292.46875 269.652344 288.722656 271.808594 C 288.828125 272.734375 288.800781 272.917969 289.632812 273.78125 C 295.085938 271.054688 299.988281 267.167969 306.246094 265.84375 C 304.644531 264.242188 304.644531 264.242188 303.023438 264.917969 C 302.222656 265.257812 301.40625 265.613281 300.359375 266.042969 Z M 350.066406 136.699219 C 350.066406 140.921875 350.066406 145.144531 350.066406 149.398438 C 351.714844 149.183594 351.871094 149.027344 351.730469 147.808594 C 351.683594 147.378906 351.546875 146.949219 351.515625 146.515625 C 351.175781 142.414062 350.757812 138.316406 350.558594 134.199219 C 350.511719 133.121094 350.453125 132.027344 350.421875 130.933594 C 350.296875 130.933594 350.175781 130.949219 350.066406 130.949219 C 350.066406 132.738281 350.066406 134.554688 350.066406 136.699219 Z M 459.191406 149.382812 C 460.285156 149.429688 459.882812 148.582031 459.882812 148.089844 C 459.914062 143.1875 459.898438 138.285156 459.882812 133.382812 C 459.882812 133.058594 459.945312 132.707031 459.605469 132.257812 C 459.484375 134.460938 459.421875 136.496094 459.238281 138.515625 C 458.945312 141.84375 458.757812 145.191406 458.265625 148.503906 C 458.203125 149.058594 458.605469 149.136719 459.191406 149.382812 Z M 384.375 277.359375 C 384.3125 277.417969 384.113281 277.28125 384.160156 277.496094 C 384.160156 277.511719 384.253906 277.527344 384.3125 277.527344 C 385.65625 277.636719 386.996094 277.652344 388.335938 277.417969 C 387.074219 277.296875 385.824219 277.203125 384.375 277.359375 Z M 424.449219 277.28125 C 423.523438 277.28125 422.617188 277.28125 421.691406 277.28125 C 423.140625 277.605469 424.574219 277.679688 426.023438 277.417969 C 425.574219 277.359375 425.144531 277.3125 424.449219 277.28125 Z M 393.933594 277.21875 C 393.976562 277.203125 394.070312 277.15625 394.085938 277.171875 C 394.226562 277.34375 394.300781 277.140625 394.101562 277.050781 C 393.886719 276.972656 393.683594 276.988281 393.5 277.113281 C 393.609375 277.15625 393.699219 277.1875 393.933594 277.21875 Z M 416.328125 276.988281 C 416.171875 277.003906 415.941406 276.894531 415.910156 277.203125 C 416.113281 277.171875 416.402344 277.464844 416.328125 276.988281 Z M 416.328125 276.988281 " fill-opacity="1" fill-rule="nonzero"/></g><path fill="#e78eb6" d="M 473.757812 227.375 C 473.863281 227.140625 474.019531 227.050781 474.125 227.203125 C 474.25 227.386719 474.140625 227.605469 473.972656 227.695312 C 473.757812 227.789062 473.757812 227.574219 473.757812 227.375 Z M 473.757812 227.375 " fill-opacity="1" fill-rule="nonzero"/><path fill="#e78eb6" d="M 336.054688 227.542969 C 336.007812 227.359375 335.964844 227.140625 336.164062 227.234375 C 336.300781 227.3125 336.269531 227.496094 336.054688 227.542969 Z M 336.054688 227.542969 " fill-opacity="1" fill-rule="nonzero"/><path fill="#e78eb6" d="M 221.597656 621.007812 C 221.550781 621.796875 221.707031 622.457031 221.457031 623.058594 C 221.042969 623.105469 221.058594 622.84375 221.058594 622.644531 C 220.917969 618.574219 220.796875 614.488281 220.640625 610.421875 C 220.488281 606.84375 220.273438 603.269531 220.101562 599.691406 C 219.839844 593.914062 219.640625 588.117188 219.316406 582.335938 C 218.839844 573.582031 218.546875 564.8125 218.222656 556.042969 C 218.128906 553.453125 218.082031 550.863281 218.007812 548.257812 C 217.175781 521.269531 217.003906 494.296875 217.28125 467.292969 C 217.480469 447.980469 217.40625 428.652344 217.234375 409.339844 C 217.234375 408.632812 217.25 407.890625 217.40625 407.199219 C 217.636719 406.179688 218.605469 405.425781 219.53125 405.410156 C 220.457031 405.394531 221.242188 405.949219 221.675781 406.953125 C 221.984375 407.675781 221.984375 408.460938 222 409.234375 C 222.015625 424.199219 222.074219 439.148438 222.058594 454.117188 C 222.042969 471.5 221.984375 488.886719 221.875 506.273438 C 221.796875 517.804688 221.550781 529.347656 221.503906 540.875 C 221.457031 553.515625 221.550781 566.152344 221.566406 578.792969 C 221.582031 592.820312 221.582031 606.84375 221.597656 621.007812 Z M 221.597656 621.007812 " fill-opacity="1" fill-rule="nonzero"/><path fill="#e78eb6" d="M 588.167969 497.84375 C 588.03125 468.371094 587.875 439.058594 588.089844 409.757812 C 588.089844 409.046875 588.074219 408.308594 588.199219 407.613281 C 588.445312 406.242188 589.386719 405.394531 590.496094 405.410156 C 591.621094 405.425781 592.546875 406.304688 592.792969 407.644531 C 592.882812 408.183594 592.882812 408.738281 592.882812 409.292969 C 592.484375 441.648438 592.976562 473.984375 592.960938 506.335938 C 592.960938 517.480469 592.484375 528.621094 592.269531 539.765625 C 592.066406 550.480469 591.714844 561.175781 591.296875 571.871094 C 591.113281 576.773438 590.894531 581.691406 590.648438 586.589844 C 590.324219 593.359375 589.941406 600.140625 589.617188 606.90625 C 589.417969 611.207031 589.277344 615.492188 589.109375 619.792969 C 589.0625 620.917969 588.921875 622.042969 588.675781 623.167969 C 588.292969 622.660156 588.382812 622.074219 588.382812 621.535156 C 588.445312 610.21875 588.570312 598.90625 588.585938 587.59375 C 588.613281 569.761719 588.660156 551.941406 588.539062 534.109375 C 588.460938 522.074219 588.152344 510.035156 588.167969 497.84375 Z M 588.167969 497.84375 " fill-opacity="1" fill-rule="nonzero"/><path fill="#e78eb6" d="M 576.746094 349.832031 C 575.253906 349.304688 574.28125 348.058594 573.109375 347.085938 C 562.335938 338.132812 551.5 329.300781 540.019531 321.253906 C 530.339844 314.488281 520.398438 308.121094 509.839844 302.773438 C 509.144531 302.417969 508.453125 302.113281 507.632812 301.804688 C 507.527344 301.820312 507.558594 301.835938 507.558594 301.835938 C 507.464844 301.234375 507.125 301.03125 506.523438 301.046875 C 504.273438 301.109375 502.023438 300.878906 499.773438 300.785156 C 483.730469 300.125 467.683594 300.109375 451.640625 300.183594 C 441.652344 300.230469 431.664062 300.339844 421.675781 300.648438 C 417.160156 300.785156 412.644531 300.738281 408.113281 301.125 C 405.675781 301.339844 403.164062 301.324219 400.683594 301.046875 C 399.417969 300.910156 398.15625 300.847656 396.875 300.832031 C 387.71875 300.679688 378.566406 300.507812 369.410156 300.324219 C 357.324219 300.09375 345.242188 300.078125 333.15625 300.230469 C 327.484375 300.292969 321.796875 300.324219 316.109375 300.523438 C 312.535156 300.648438 308.976562 300.738281 305.414062 301.03125 C 304.550781 301.109375 303.671875 301.046875 302.5625 301.046875 C 303.933594 305.039062 305.230469 308.847656 306.539062 312.636719 C 306.402344 312.683594 306.261719 312.730469 306.125 312.777344 C 304.890625 309.125 303.640625 305.457031 302.410156 301.835938 C 301.605469 301.894531 301.113281 302.296875 300.589844 302.558594 C 287.519531 309.203125 275.328125 317.230469 263.535156 325.910156 C 252.703125 333.894531 242.359375 342.476562 232.09375 351.140625 C 231.800781 351.386719 231.460938 351.570312 231.03125 351.804688 C 230.921875 351.804688 230.9375 351.820312 230.9375 351.820312 C 231.753906 350.476562 233.109375 349.675781 234.265625 348.707031 C 241.203125 342.816406 248.15625 336.976562 255.289062 331.335938 C 266.726562 322.289062 278.609375 313.886719 291.1875 306.519531 C 294.285156 304.699219 297.476562 303.082031 300.621094 301.339844 C 301.3125 300.957031 302.023438 300.925781 302.792969 300.800781 C 304.335938 300.570312 305.875 300.679688 307.371094 300.460938 C 309.40625 300.167969 311.457031 300.214844 313.476562 300.167969 C 316.621094 300.09375 319.75 299.90625 322.894531 299.816406 C 340 299.304688 357.109375 299.460938 374.21875 299.445312 C 385.53125 299.429688 396.84375 300.03125 408.160156 299.816406 C 426.808594 299.476562 445.457031 299.398438 464.125 299.445312 C 469.855469 299.460938 475.605469 299.492188 481.339844 299.628906 C 487.84375 299.785156 494.347656 299.953125 500.835938 300.324219 C 502.792969 300.429688 504.769531 300.523438 506.742188 300.722656 C 508.375 300.894531 509.683594 301.480469 511.011719 302.1875 C 523.449219 308.722656 535.085938 316.507812 546.335938 324.890625 C 555.398438 331.644531 564.125 338.824219 572.707031 346.164062 C 574.050781 347.300781 575.375 348.457031 576.714844 349.707031 C 576.746094 349.832031 576.746094 349.832031 576.746094 349.832031 Z M 576.746094 349.832031 " fill-opacity="1" fill-rule="nonzero"/><path fill="#e78eb6" d="M 507.527344 301.804688 C 507.109375 303.898438 506.214844 305.855469 505.570312 307.890625 C 505.0625 309.496094 504.492188 311.082031 503.933594 312.714844 C 503.378906 312.332031 503.734375 312.039062 503.828125 311.789062 C 504.9375 308.460938 505.96875 305.101562 507.433594 301.847656 C 507.574219 301.835938 507.542969 301.820312 507.527344 301.804688 Z M 507.527344 301.804688 " fill-opacity="1" fill-rule="nonzero"/><path fill="#e78eb6" d="M 581.0625 353.46875 C 579.476562 352.789062 578.425781 351.417969 577.085938 350.277344 C 577.070312 350.167969 577.054688 350.183594 577.054688 350.183594 C 577.625 350.09375 577.902344 350.539062 578.257812 350.847656 C 579.183594 351.648438 580.105469 352.464844 581.03125 353.375 C 581.046875 353.484375 581.0625 353.46875 581.0625 353.46875 Z M 581.0625 353.46875 " fill-opacity="1" fill-rule="nonzero"/><path fill="#e78eb6" d="M 230.628906 352.15625 C 229.980469 353.191406 228.917969 353.746094 227.964844 354.410156 C 228.59375 353.453125 229.488281 352.804688 230.507812 352.140625 C 230.628906 352.15625 230.628906 352.15625 230.628906 352.15625 Z M 230.628906 352.15625 " fill-opacity="1" fill-rule="nonzero"/><path fill="#e78eb6" d="M 581.695312 354.160156 C 581.832031 354.175781 581.972656 354.191406 582.109375 354.207031 C 582.125 354.207031 582.140625 354.285156 582.125 354.316406 C 582.003906 354.46875 581.878906 354.394531 581.742188 354.222656 C 581.710938 354.144531 581.695312 354.160156 581.695312 354.160156 Z M 581.695312 354.160156 " fill-opacity="1" fill-rule="nonzero"/><path fill="#e78eb6" d="M 581.402344 353.792969 C 581.292969 353.746094 581.1875 353.699219 581.078125 353.558594 C 581.078125 353.46875 581.0625 353.484375 581.0625 353.484375 C 581.171875 353.53125 581.292969 353.574219 581.402344 353.714844 C 581.386719 353.808594 581.402344 353.792969 581.402344 353.792969 Z M 581.402344 353.792969 " fill-opacity="1" fill-rule="nonzero"/><path fill="#e78eb6" d="M 581.726562 354.128906 C 581.617188 354.085938 581.511719 354.023438 581.402344 353.882812 C 581.402344 353.792969 581.386719 353.808594 581.386719 353.808594 C 581.496094 353.851562 581.617188 353.898438 581.710938 354.054688 C 581.695312 354.160156 581.710938 354.144531 581.726562 354.128906 Z M 581.726562 354.128906 " fill-opacity="1" fill-rule="nonzero"/><path fill="#e78eb6" d="M 230.628906 352.140625 C 230.675781 352.035156 230.738281 351.925781 230.875 351.820312 C 230.96875 351.820312 230.953125 351.804688 230.953125 351.804688 C 230.90625 351.910156 230.875 352.019531 230.738281 352.140625 C 230.628906 352.15625 230.628906 352.15625 230.628906 352.140625 Z M 230.628906 352.140625 " fill-opacity="1" fill-rule="nonzero"/><path fill="#e78eb6" d="M 577.085938 350.152344 C 576.976562 350.109375 576.871094 350.0625 576.761719 349.921875 C 576.761719 349.832031 576.746094 349.832031 576.746094 349.832031 C 576.855469 349.875 576.976562 349.921875 577.070312 350.078125 C 577.070312 350.183594 577.070312 350.167969 577.085938 350.152344 Z M 577.085938 350.152344 " fill-opacity="1" fill-rule="nonzero"/><path fill="#e78eb6" d="M 402.808594 116.597656 C 398.878906 120.851562 391.867188 121.59375 387.042969 117.355469 C 382.679688 113.53125 381.910156 106.886719 385.5 102.078125 C 388.246094 98.425781 392.945312 96.714844 397.230469 97.886719 C 402.007812 99.183594 404.9375 102.339844 405.722656 107.195312 C 406.277344 110.664062 405.335938 113.871094 402.808594 116.597656 Z M 394.71875 119.621094 C 400.820312 119.589844 405.539062 114.195312 405.292969 108.414062 C 405.042969 102.773438 400.3125 98.042969 394.488281 98.101562 C 388.753906 98.164062 383.804688 102.449219 383.757812 108.832031 C 383.726562 114.917969 388.492188 119.558594 394.71875 119.621094 Z M 394.71875 119.621094 " fill-opacity="1" fill-rule="nonzero"/><path fill="#e78eb6" d="M 395.164062 104.886719 C 395.335938 105.164062 395.503906 105.363281 395.503906 105.5625 C 395.503906 106.410156 395.085938 106.875 394.363281 106.859375 C 393.730469 106.828125 393.332031 106.503906 393.269531 105.855469 C 393.191406 105.132812 393.625 104.683594 394.457031 104.621094 C 394.65625 104.609375 394.855469 104.730469 395.164062 104.886719 Z M 395.164062 104.886719 " fill-opacity="1" fill-rule="nonzero"/></svg>