<svg xmlns="http://www.w3.org/2000/svg" xmlns:v="https://svgstorm.com"
viewBox = "0 0 295 430"
width="295"
height="430">
<g fill="None" fill-opacity="0.0" stroke="#FDFDFD" stroke-opacity="1.00" stroke-width="0.3"><path d="
M 0.00 430.00 
L 295.00 430.00
L 295.00 0.00
L 0.00 0.00
L 0.00 430.00
M 146.00 57.00 
C 146.30 58.25 147.83 58.71 148.00 60.00
C 151.33 60.00 154.67 60.00 158.00 60.00
C 160.35 60.85 161.23 64.24 164.00 64.00
C 190.06 68.05 227.38 52.48 242.77 80.23 C 247.76 110.13 243.67 142.22 245.00 173.00 C 244.33 235.84 246.33 299.99 244.00 362.00
C 239.97 392.75 202.22 382.44 180.00 384.00 C 151.33 384.00 122.67 384.00 94.00 384.00 C 71.50 382.65 33.11 392.60 30.00 361.00
C 27.67 281.23 29.67 199.52 29.00 119.00 C 29.95 104.45 26.02 88.39 33.77 75.77 C 42.31 63.41 57.27 63.24 71.00 64.00 C 85.67 61.82 103.75 68.65 116.00 60.00
C 116.45 59.85 117.50 60.00 118.00 60.00
C 120.28 57.28 125.79 60.77 128.00 58.00
C 114.64 58.90 119.96 42.92 119.00 34.00 C 114.89 20.73 125.83 16.43 137.00 19.00 C 147.86 17.24 160.32 18.73 156.00 33.00 C 154.98 41.61 160.66 59.74 146.00 57.00 Z"/>
</g>
<g fill="None" fill-opacity="0.0" stroke="#EDD5E0" stroke-opacity="1.00" stroke-width="0.3"><path d="
M 118.00 60.00 
C 126.33 60.00 134.67 60.00 143.00 60.00
C 144.41 58.49 144.00 56.55 143.00 55.00
C 138.67 55.00 134.33 55.00 130.00 55.00
C 129.81 50.03 142.62 50.92 144.00 54.00
C 144.99 48.57 132.13 51.21 128.00 52.00
C 125.11 62.43 116.47 49.32 120.00 43.00 C 121.73 36.18 116.00 23.96 124.03 21.03 C 132.42 20.85 140.96 21.54 149.00 20.00 C 159.13 20.29 152.08 32.48 154.00 39.00 C 153.98 45.21 156.37 59.49 146.00 55.00
C 146.02 55.50 145.89 56.52 146.00 57.00
C 160.66 59.74 154.98 41.61 156.00 33.00 C 160.32 18.73 147.86 17.24 137.00 19.00 C 125.83 16.43 114.89 20.73 119.00 34.00 C 119.96 42.92 114.64 58.90 128.00 58.00
C 125.79 60.77 120.28 57.28 118.00 60.00 Z"/>
</g>
<g fill="None" fill-opacity="0.0" stroke="#FCF9FB" stroke-opacity="1.00" stroke-width="0.3"><path d="
M 128.00 52.00 
C 127.93 51.51 128.00 51.00 128.00 51.00
C 126.65 45.78 128.01 35.38 129.00 29.00
C 134.67 29.00 140.33 29.00 146.00 29.00
C 146.00 34.33 146.00 39.67 146.00 45.00
C 148.09 45.43 148.97 49.07 147.00 50.00
C 145.79 51.40 146.02 53.26 146.00 55.00
C 156.37 59.49 153.98 45.21 154.00 39.00 C 152.08 32.48 159.13 20.29 149.00 20.00 C 140.96 21.54 132.42 20.85 124.03 21.03 C 116.00 23.96 121.73 36.18 120.00 43.00 C 116.47 49.32 125.11 62.43 128.00 52.00 Z"/>
</g>
<g fill="None" fill-opacity="0.0" stroke="#eeb4cf" stroke-opacity="1.00" stroke-width="0.3"><path d="
M 128.00 51.00 
C 128.00 50.50 128.00 50.00 128.00 50.00
C 130.96 46.20 141.45 47.86 146.00 49.00
C 146.30 49.22 147.01 49.67 147.00 50.00
C 148.97 49.07 148.09 45.43 146.00 45.00
C 148.26 46.66 144.52 48.03 144.00 46.00
C 139.50 45.36 133.67 47.30 130.00 45.00
C 128.66 44.53 128.43 41.42 130.00 41.00
C 130.00 37.67 130.00 34.33 130.00 31.00
C 134.67 31.00 139.33 31.00 144.00 31.00
C 144.00 34.67 144.00 38.33 144.00 42.00
C 139.67 42.00 135.33 42.00 131.00 42.00
C 134.75 44.22 140.49 42.41 145.00 43.00
C 145.00 38.67 145.00 34.33 145.00 30.00
C 139.84 29.35 133.34 31.31 129.00 29.00
C 128.01 35.38 126.65 45.78 128.00 51.00 Z"/>
</g>
<g fill="None" fill-opacity="0.0" stroke="#e7aac6" stroke-opacity="1.00" stroke-width="0.3"><path d="
M 131.00 42.00 
C 130.70 41.78 130.05 41.35 130.00 41.00
C 128.43 41.42 128.66 44.53 130.00 45.00
C 132.94 43.73 145.12 42.41 144.00 46.00
C 144.52 48.03 148.26 46.66 146.00 45.00
C 146.00 39.67 146.00 34.33 146.00 29.00
C 140.33 29.00 134.67 29.00 129.00 29.00
C 133.34 31.31 139.84 29.35 145.00 30.00
C 145.00 34.33 145.00 38.67 145.00 43.00
C 140.49 42.41 134.75 44.22 131.00 42.00 Z"/>
</g>
<g fill="None" fill-opacity="0.0" stroke="#f5a6f5" stroke-opacity="1.00" stroke-width="0.3"><path d="
M 130.00 41.00 
C 130.05 41.35 130.70 41.78 131.00 42.00
C 135.33 42.00 139.67 42.00 144.00 42.00
C 144.00 38.33 144.00 34.67 144.00 31.00
C 139.33 31.00 134.67 31.00 130.00 31.00
C 130.00 34.33 130.00 37.67 130.00 41.00 Z"/>
</g>
<g fill="None" fill-opacity="0.0" stroke="#FCF7FB" stroke-opacity="1.00" stroke-width="0.3"><path d="
M 130.00 45.00 
C 133.67 47.30 139.50 45.36 144.00 46.00
C 145.12 42.41 132.94 43.73 130.00 45.00 Z"/>
</g>
<g fill="None" fill-opacity="0.0" stroke="#FCF5FA" stroke-opacity="1.00" stroke-width="0.3"><path d="
M 128.00 50.00 
C 133.83 49.34 140.99 51.32 146.00 49.00
C 141.45 47.86 130.96 46.20 128.00 50.00 Z"/>
</g>
<g fill="None" fill-opacity="0.0" stroke="#DDAFC4" stroke-opacity="1.00" stroke-width="0.3"><path d="
M 128.00 50.00 
C 128.00 50.00 128.00 50.50 128.00 51.00
C 128.00 51.00 127.93 51.51 128.00 52.00
C 132.13 51.21 144.99 48.57 144.00 54.00
C 143.78 54.29 143.35 54.95 143.00 55.00
C 144.00 56.55 144.41 58.49 143.00 60.00
C 144.67 60.00 146.33 60.00 148.00 60.00
C 147.83 58.71 146.30 58.25 146.00 57.00
C 145.89 56.52 146.02 55.50 146.00 55.00
C 146.02 53.26 145.79 51.40 147.00 50.00
C 147.01 49.67 146.30 49.22 146.00 49.00
C 140.99 51.32 133.83 49.34 128.00 50.00 Z"/>
</g>
<g fill="None" fill-opacity="0.0" stroke="#FDFAFD" stroke-opacity="1.00" stroke-width="0.3"><path d="
M 143.00 55.00 
C 143.35 54.95 143.78 54.29 144.00 54.00
C 142.62 50.92 129.81 50.03 130.00 55.00
C 134.33 55.00 138.67 55.00 143.00 55.00 Z"/>
</g>
<g fill="None" fill-opacity="0.0" stroke="#ECD5E0" stroke-opacity="1.00" stroke-width="0.3"><path d="
M 30.00 361.00 
C 30.04 360.65 30.95 360.23 31.00 360.00
C 31.00 270.67 31.00 181.33 31.00 92.00 C 30.43 58.30 71.15 66.49 94.00 66.00 C 123.67 66.00 153.33 66.00 183.00 66.00 C 205.93 64.30 245.48 60.28 243.00 94.00 C 243.00 183.33 243.00 272.67 243.00 362.00
C 243.01 361.93 244.00 362.00 244.00 362.00
C 246.33 299.99 244.33 235.84 245.00 173.00 C 243.67 142.22 247.76 110.13 242.77 80.23 C 227.38 52.48 190.06 68.05 164.00 64.00
C 149.91 66.33 133.85 64.34 119.00 65.00
C 117.33 65.00 115.67 65.00 114.00 65.00
C 113.24 62.81 115.30 61.68 116.00 60.00
C 103.75 68.65 85.67 61.82 71.00 64.00 C 57.27 63.24 42.31 63.41 33.77 75.77 C 26.02 88.39 29.95 104.45 29.00 119.00 C 29.67 199.52 27.67 281.23 30.00 361.00 Z"/>
</g>
<g fill="None" fill-opacity="0.0" stroke="#E48EB8" stroke-opacity="1.00" stroke-width="0.3"><path d="
M 119.00 65.00 
C 131.76 62.68 146.49 64.66 160.00 64.00
C 159.27 62.66 158.66 61.36 158.00 60.00
C 154.67 60.00 151.33 60.00 148.00 60.00
C 146.33 60.00 144.67 60.00 143.00 60.00
C 134.67 60.00 126.33 60.00 118.00 60.00
C 117.50 60.00 116.45 59.85 116.00 60.00
C 115.30 61.68 113.24 62.81 114.00 65.00
C 115.67 65.00 117.33 65.00 119.00 65.00 Z"/>
</g>
<g fill="None" fill-opacity="0.0" stroke="#E6B0CA" stroke-opacity="1.00" stroke-width="0.3"><path d="
M 119.00 65.00 
C 133.85 64.34 149.91 66.33 164.00 64.00
C 161.23 64.24 160.35 60.85 158.00 60.00
C 158.66 61.36 159.27 62.66 160.00 64.00
C 146.49 64.66 131.76 62.68 119.00 65.00 Z"/>
</g>
<g fill="None" fill-opacity="0.0" stroke="#FDFDFD" stroke-opacity="1.00" stroke-width="0.3"><path d="
M 31.00 360.00 
C 34.13 390.74 70.84 382.07 93.00 383.00 C 121.33 383.00 149.67 383.00 178.00 383.00 C 200.38 381.25 237.11 391.64 243.00 362.00
C 243.00 272.67 243.00 183.33 243.00 94.00 C 245.48 60.28 205.93 64.30 183.00 66.00 C 153.33 66.00 123.67 66.00 94.00 66.00 C 71.15 66.49 30.43 58.30 31.00 92.00 C 31.00 181.33 31.00 270.67 31.00 360.00 Z"/>
</g>
<g fill="None" fill-opacity="0.0" stroke="#DDB1C5" stroke-opacity="1.00" stroke-width="0.3"><path d="
M 30.00 361.00 
C 33.11 392.60 71.50 382.65 94.00 384.00 C 122.67 384.00 151.33 384.00 180.00 384.00 C 202.22 382.44 239.97 392.75 244.00 362.00
C 244.00 362.00 243.01 361.93 243.00 362.00
C 237.11 391.64 200.38 381.25 178.00 383.00 C 149.67 383.00 121.33 383.00 93.00 383.00 C 70.84 382.07 34.13 390.74 31.00 360.00
C 30.95 360.23 30.04 360.65 30.00 361.00 Z"/>
</g>
<g fill="#FDFDFD" fill-opacity="1.00" stroke="None">
<path d="
M 0.00 430.00 
L 295.00 430.00
L 295.00 0.00
L 0.00 0.00
L 0.00 430.00
M 146.00 57.00 
C 146.30 58.25 147.83 58.71 148.00 60.00
C 151.33 60.00 154.67 60.00 158.00 60.00
C 160.35 60.85 161.23 64.24 164.00 64.00
C 190.06 68.05 227.38 52.48 242.77 80.23 C 247.76 110.13 243.67 142.22 245.00 173.00 C 244.33 235.84 246.33 299.99 244.00 362.00
C 239.97 392.75 202.22 382.44 180.00 384.00 C 151.33 384.00 122.67 384.00 94.00 384.00 C 71.50 382.65 33.11 392.60 30.00 361.00
C 27.67 281.23 29.67 199.52 29.00 119.00 C 29.95 104.45 26.02 88.39 33.77 75.77 C 42.31 63.41 57.27 63.24 71.00 64.00 C 85.67 61.82 103.75 68.65 116.00 60.00
C 116.45 59.85 117.50 60.00 118.00 60.00
C 120.28 57.28 125.79 60.77 128.00 58.00
C 114.64 58.90 119.96 42.92 119.00 34.00 C 114.89 20.73 125.83 16.43 137.00 19.00 C 147.86 17.24 160.32 18.73 156.00 33.00 C 154.98 41.61 160.66 59.74 146.00 57.00 Z"/>
</g>
<g fill="#EDD5E0" fill-opacity="1.00" stroke="None">
<path d="
M 118.00 60.00 
C 126.33 60.00 134.67 60.00 143.00 60.00
C 144.41 58.49 144.00 56.55 143.00 55.00
C 138.67 55.00 134.33 55.00 130.00 55.00
C 129.81 50.03 142.62 50.92 144.00 54.00
C 144.99 48.57 132.13 51.21 128.00 52.00
C 125.11 62.43 116.47 49.32 120.00 43.00 C 121.73 36.18 116.00 23.96 124.03 21.03 C 132.42 20.85 140.96 21.54 149.00 20.00 C 159.13 20.29 152.08 32.48 154.00 39.00 C 153.98 45.21 156.37 59.49 146.00 55.00
C 146.02 55.50 145.89 56.52 146.00 57.00
C 160.66 59.74 154.98 41.61 156.00 33.00 C 160.32 18.73 147.86 17.24 137.00 19.00 C 125.83 16.43 114.89 20.73 119.00 34.00 C 119.96 42.92 114.64 58.90 128.00 58.00
C 125.79 60.77 120.28 57.28 118.00 60.00 Z"/>
</g>
<g fill="#FCF9FB" fill-opacity="1.00" stroke="None">
<path d="
M 128.00 52.00 
C 127.93 51.51 128.00 51.00 128.00 51.00
C 126.65 45.78 128.01 35.38 129.00 29.00
C 134.67 29.00 140.33 29.00 146.00 29.00
C 146.00 34.33 146.00 39.67 146.00 45.00
C 148.09 45.43 148.97 49.07 147.00 50.00
C 145.79 51.40 146.02 53.26 146.00 55.00
C 156.37 59.49 153.98 45.21 154.00 39.00 C 152.08 32.48 159.13 20.29 149.00 20.00 C 140.96 21.54 132.42 20.85 124.03 21.03 C 116.00 23.96 121.73 36.18 120.00 43.00 C 116.47 49.32 125.11 62.43 128.00 52.00 Z"/>
</g>
<g fill="#ECD2DE" fill-opacity="1.00" stroke="None">
<path d="
M 128.00 51.00 
C 128.00 50.50 128.00 50.00 128.00 50.00
C 130.96 46.20 141.45 47.86 146.00 49.00
C 146.30 49.22 147.01 49.67 147.00 50.00
C 148.97 49.07 148.09 45.43 146.00 45.00
C 148.26 46.66 144.52 48.03 144.00 46.00
C 139.50 45.36 133.67 47.30 130.00 45.00
C 128.66 44.53 128.43 41.42 130.00 41.00
C 130.00 37.67 130.00 34.33 130.00 31.00
C 134.67 31.00 139.33 31.00 144.00 31.00
C 144.00 34.67 144.00 38.33 144.00 42.00
C 139.67 42.00 135.33 42.00 131.00 42.00
C 134.75 44.22 140.49 42.41 145.00 43.00
C 145.00 38.67 145.00 34.33 145.00 30.00
C 139.84 29.35 133.34 31.31 129.00 29.00
C 128.01 35.38 126.65 45.78 128.00 51.00 Z"/>
</g>
<g fill="#DCAEC3" fill-opacity="1.00" stroke="None">
<path d="
M 131.00 42.00 
C 130.70 41.78 130.05 41.35 130.00 41.00
C 128.43 41.42 128.66 44.53 130.00 45.00
C 132.94 43.73 145.12 42.41 144.00 46.00
C 144.52 48.03 148.26 46.66 146.00 45.00
C 146.00 39.67 146.00 34.33 146.00 29.00
C 140.33 29.00 134.67 29.00 129.00 29.00
C 133.34 31.31 139.84 29.35 145.00 30.00
C 145.00 34.33 145.00 38.67 145.00 43.00
C 140.49 42.41 134.75 44.22 131.00 42.00 Z"/>
</g>
<g fill="#FCFCFC" fill-opacity="1.00" stroke="None">
<path d="
M 130.00 41.00 
C 130.05 41.35 130.70 41.78 131.00 42.00
C 135.33 42.00 139.67 42.00 144.00 42.00
C 144.00 38.33 144.00 34.67 144.00 31.00
C 139.33 31.00 134.67 31.00 130.00 31.00
C 130.00 34.33 130.00 37.67 130.00 41.00 Z"/>
</g>
<g fill="#FCF7FB" fill-opacity="1.00" stroke="None">
<path d="
M 130.00 45.00 
C 133.67 47.30 139.50 45.36 144.00 46.00
C 145.12 42.41 132.94 43.73 130.00 45.00 Z"/>
</g>
<g fill="#FCF5FA" fill-opacity="1.00" stroke="None">
<path d="
M 128.00 50.00 
C 133.83 49.34 140.99 51.32 146.00 49.00
C 141.45 47.86 130.96 46.20 128.00 50.00 Z"/>
</g>
<g fill="#DDAFC4" fill-opacity="1.00" stroke="None">
<path d="
M 128.00 50.00 
C 128.00 50.00 128.00 50.50 128.00 51.00
C 128.00 51.00 127.93 51.51 128.00 52.00
C 132.13 51.21 144.99 48.57 144.00 54.00
C 143.78 54.29 143.35 54.95 143.00 55.00
C 144.00 56.55 144.41 58.49 143.00 60.00
C 144.67 60.00 146.33 60.00 148.00 60.00
C 147.83 58.71 146.30 58.25 146.00 57.00
C 145.89 56.52 146.02 55.50 146.00 55.00
C 146.02 53.26 145.79 51.40 147.00 50.00
C 147.01 49.67 146.30 49.22 146.00 49.00
C 140.99 51.32 133.83 49.34 128.00 50.00 Z"/>
</g>
<g fill="#FDFAFD" fill-opacity="1.00" stroke="None">
<path d="
M 143.00 55.00 
C 143.35 54.95 143.78 54.29 144.00 54.00
C 142.62 50.92 129.81 50.03 130.00 55.00
C 134.33 55.00 138.67 55.00 143.00 55.00 Z"/>
</g>
<g fill="#ECD5E0" fill-opacity="1.00" stroke="None">
<path d="
M 30.00 361.00 
C 30.04 360.65 30.95 360.23 31.00 360.00
C 31.00 270.67 31.00 181.33 31.00 92.00 C 30.43 58.30 71.15 66.49 94.00 66.00 C 123.67 66.00 153.33 66.00 183.00 66.00 C 205.93 64.30 245.48 60.28 243.00 94.00 C 243.00 183.33 243.00 272.67 243.00 362.00
C 243.01 361.93 244.00 362.00 244.00 362.00
C 246.33 299.99 244.33 235.84 245.00 173.00 C 243.67 142.22 247.76 110.13 242.77 80.23 C 227.38 52.48 190.06 68.05 164.00 64.00
C 149.91 66.33 133.85 64.34 119.00 65.00
C 117.33 65.00 115.67 65.00 114.00 65.00
C 113.24 62.81 115.30 61.68 116.00 60.00
C 103.75 68.65 85.67 61.82 71.00 64.00 C 57.27 63.24 42.31 63.41 33.77 75.77 C 26.02 88.39 29.95 104.45 29.00 119.00 C 29.67 199.52 27.67 281.23 30.00 361.00 Z"/>
</g>
<g fill="#E48EB8" fill-opacity="1.00" stroke="None">
<path d="
M 119.00 65.00 
C 131.76 62.68 146.49 64.66 160.00 64.00
C 159.27 62.66 158.66 61.36 158.00 60.00
C 154.67 60.00 151.33 60.00 148.00 60.00
C 146.33 60.00 144.67 60.00 143.00 60.00
C 134.67 60.00 126.33 60.00 118.00 60.00
C 117.50 60.00 116.45 59.85 116.00 60.00
C 115.30 61.68 113.24 62.81 114.00 65.00
C 115.67 65.00 117.33 65.00 119.00 65.00 Z"/>
</g>
<g fill="#E6B0CA" fill-opacity="1.00" stroke="None">
<path d="
M 119.00 65.00 
C 133.85 64.34 149.91 66.33 164.00 64.00
C 161.23 64.24 160.35 60.85 158.00 60.00
C 158.66 61.36 159.27 62.66 160.00 64.00
C 146.49 64.66 131.76 62.68 119.00 65.00 Z"/>
</g>
<g fill="#FDFDFD" fill-opacity="1.00" stroke="None">
<path d="
M 31.00 360.00 
C 34.13 390.74 70.84 382.07 93.00 383.00 C 121.33 383.00 149.67 383.00 178.00 383.00 C 200.38 381.25 237.11 391.64 243.00 362.00
C 243.00 272.67 243.00 183.33 243.00 94.00 C 245.48 60.28 205.93 64.30 183.00 66.00 C 153.33 66.00 123.67 66.00 94.00 66.00 C 71.15 66.49 30.43 58.30 31.00 92.00 C 31.00 181.33 31.00 270.67 31.00 360.00 Z"/>
</g>
<g fill="#DDB1C5" fill-opacity="1.00" stroke="None">
<path d="
M 30.00 361.00 
C 33.11 392.60 71.50 382.65 94.00 384.00 C 122.67 384.00 151.33 384.00 180.00 384.00 C 202.22 382.44 239.97 392.75 244.00 362.00
C 244.00 362.00 243.01 361.93 243.00 362.00
C 237.11 391.64 200.38 381.25 178.00 383.00 C 149.67 383.00 121.33 383.00 93.00 383.00 C 70.84 382.07 34.13 390.74 31.00 360.00
C 30.95 360.23 30.04 360.65 30.00 361.00 Z"/>
</g>
</svg>