<svg width="64" height="60" viewBox="0 0 64 60" fill="none" xmlns="http://www.w3.org/2000/svg">
<path d="M9.06325 49.4533C10.8589 51.1156 15.1486 59.0577 15.1486 59.0577C15.1486 59.0577 18.0915 53.1473 19.3385 51.9468C20.6354 50.7462 25.1744 51.2541 27.02 52.9164C27.02 52.9164 25.3739 39.9875 27.2195 39.2948C29.0651 38.6022 40.7868 56.0563 40.7868 56.0563C40.7868 56.0563 41.0861 49.5457 42.782 48.7145C44.4779 47.8834 57.2471 52.9626 57.2471 52.9626C57.2471 52.9626 57.3968 53.0088 57.4965 52.9626C57.5963 52.8703 57.4965 52.7317 57.4965 52.7317C57.4965 52.7317 51.91 40.9571 52.8078 39.3872C53.7057 37.8172 60.7387 37.494 60.7387 37.494C60.7387 37.494 41.8343 26.7814 42.5825 25.073C43.2808 23.3645 57.297 24.7959 57.297 24.7959C55.4515 23.0874 54.9028 18.8394 56.1498 17.685C57.4467 16.4844 63.9809 13.7601 63.9809 13.7601C63.9809 13.7601 55.1023 9.78908 53.3565 8.12678C51.5608 6.51066 54.0548 4.34044 53.7556 4.01722C53.4563 3.74017 49.5657 4.47896 43.2309 4.84836C36.8962 5.26394 31.8084 6.27979 30.3619 4.94071C29.2147 3.87869 27.5188 0 27.5188 0C27.5188 0 18.7399 11.4514 18.0416 12.421C17.3433 13.3907 16.4953 14.1295 14.6498 12.421L4.42443 1.93935L1.88056 4.29427L13.4527 13.5754C15.2982 15.2839 14.5002 16.0227 13.4527 16.7153C12.4052 17.3618 0.134766 25.5347 0.134766 25.5347C0.134766 25.5347 4.37455 27.1047 5.4719 28.1667C6.91842 29.5058 5.87094 34.2156 5.4719 40.126C5.12275 45.944 4.32467 49.5457 4.62395 49.8227C4.97311 50.1459 7.31746 47.791 9.06325 49.4533ZM20.386 19.809L17.044 16.9L18.3409 15.6995L21.5831 18.8394L43.4304 13.3445L23.0795 20.2708L43.1312 39.7566L22.0819 21.2866L15.0987 40.9571L20.386 19.809Z" fill="#F29251"/>
</svg>
