<svg viewBox="0 0 128 128" fill="currentColor"><path d="M109.2,18.8C84-6.3,43.6-6.3,18.8,18.8c-25.1,25.1-25.1,65.6,0,90.3c25.1,25.1,65.6,25.1,90.3,0
			C134.3,84.4,134.3,43.6,109.2,18.8z M102.3,102.3c-20.9,20.9-55.4,21.3-76.2,0C5.2,81.5,5.2,47,26.1,25.7
			c20.9-20.9,55.4-20.9,76.7,0C123.2,47,123.2,81,102.3,102.3z"></path> <circle cx="46.5" cy="47" r="7.7"></circle> <circle cx="81.5" cy="47" r="7.7"></circle> <path d="M36.7,85.7c0,2.3,1.9,4.2,4.2,4.2h46.2c2.3,0,4.2-1.9,4.2-4.2c0-2.3-1.9-4.2-4.2-4.2H40.9
			C38.6,81.5,36.7,83.4,36.7,85.7L36.7,85.7z"></path></svg>