<svg viewBox="0 0 128 128" fill="currentColor"><path d="M109.2,18.8C84-6.3,43.6-6.3,18.8,18.8c-25.1,25.1-25.1,65.6,0,90.3c25.1,25.1,65.6,25.1,90.3,0
            C134.3,84.4,134.3,43.6,109.2,18.8z M102.3,102.3c-20.9,20.9-55.4,21.3-76.2,0C5.2,81.5,5.2,47,26.1,25.7
            c20.9-20.9,55.4-20.9,76.7,0C123.2,47,123.2,81,102.3,102.3z"></path> <circle cx="46.5" cy="47" r="7.7"></circle> <circle cx="81.5" cy="47" r="7.7"></circle> <path d="M90,72.5c-1.7-0.9-3.8,0-4.7,1.7c-3.4,8.1-11.8,13.2-20.7,13.2c-0.3,0-0.6,0-0.6,0
            c-9,0-17.6-5.1-21-13.2c-0.9-1.7-3.1-2.6-4.8-1.7c-1.7,0.9-2.4,2.8-1.6,4.9C41.3,87.9,52,94.7,64,94.7c0,0,0.1,0,0.2,0
            c12.4,0,22.9-6.6,27.6-17.3C92.6,75.3,91.7,73.4,90,72.5z"></path></svg>