<svg width="65" height="60" viewBox="0 0 65 60" fill="none" xmlns="http://www.w3.org/2000/svg">
<path d="M30.479 22.3462L34.1798 19.764L37.932 22.3462L36.4928 18.0756L40.245 15.394H35.619L34.1798 11.1731L32.792 15.394H28.166L31.9182 18.0756L30.479 22.3462Z" fill="#00265A"/>
<path d="M47.9177 9.56595L49.9166 14.3654L51.5568 9.47789L57.5023 9.34579L52.6331 6.48373L54.2733 1.59619L49.6091 4.67842L44.6887 1.81635L46.6876 6.61582L41.9722 9.69805L47.9177 9.56595Z" fill="#00265A"/>
<path d="M50.6674 24.5372L46.3356 17.5576L45.3558 25.4803L36.7954 27.0838L44.737 30.3849L43.7572 38.3076L49.636 32.4599L57.5776 35.761L53.2974 28.8286L59.2278 22.9338L50.6674 24.5372Z" fill="#00265A"/>
<path d="M29.1456 32.6138C19.6205 23.803 17.1269 10.9328 21.6651 0C17.5259 1.47615 13.5862 3.78264 10.2449 6.91947C-2.67147 18.8671 -2.67147 38.1955 10.2449 50.097C23.1612 62.0446 44.0568 62.0446 56.9233 50.097C60.3144 47.0063 62.7581 43.362 64.4038 39.5333C52.5846 43.7311 38.6708 41.4246 29.1456 32.6138Z" fill="#00265A"/>
</svg>
