<svg width="64" height="55" viewBox="0 0 64 55" fill="none" xmlns="http://www.w3.org/2000/svg">
<path d="M30.0775 51.2103C30.0775 51.2103 27.7332 42.6142 27.1845 40.5697C27.0847 40.2909 27.0847 40.1515 27.0847 40.1515L29.5787 36.109H34.3173L36.8113 40.105C36.8113 40.105 36.7614 40.2909 36.6617 40.5697C36.0631 42.7071 33.7686 51.2103 33.7686 51.2103C33.7188 51.4426 33.6689 51.675 33.6689 51.8608C33.6689 53.0225 34.4669 54.0447 35.6142 54.37C37.0108 54.7417 38.4573 53.9053 38.8564 52.5578L40.5523 46.4708L43.8444 52.0932C44.5925 53.3477 46.1887 53.7659 47.4357 53.0689C47.4357 53.0689 47.4856 53.0689 47.4856 53.0225C48.7825 52.279 49.2314 50.7457 48.4832 49.4911C48.4832 49.4911 48.0841 48.7941 47.4856 47.9113C46.488 46.2385 45.0913 43.8688 45.0913 43.8688C45.0913 43.8688 46.1887 44.1475 47.4856 44.4728C49.3311 44.9375 51.5258 45.495 51.5258 45.495C53.0222 45.8668 54.5186 45.0304 54.9177 43.6829C55.2668 42.3819 54.5186 41.0344 53.2218 40.5697C53.122 40.5232 53.0721 40.5232 52.9724 40.4768C52.9724 40.4768 50.2788 39.8262 47.4856 39.1757C44.4928 38.4323 41.4002 37.6424 41.4002 37.6424L38.9062 33.5999L41.3005 29.7897H46.2885C46.2885 29.7897 46.7873 30.2543 47.4856 30.9049C49.9297 33.0423 54.9675 37.503 54.9675 37.503C56.0649 38.4787 57.8107 38.4787 58.9081 37.503C60.0054 36.5272 60.0054 34.9938 58.9081 34.018L54.0697 29.7432H61.0529C62.5992 29.7432 63.8462 28.628 63.8462 27.2805C63.8462 25.933 62.5992 24.8179 61.0529 24.8179H54.1196L58.9081 20.5895C60.0054 19.6137 60.0054 18.0803 58.9081 17.1046C57.8107 16.1288 56.0649 16.1288 54.9675 17.1046C54.9675 17.1046 49.8798 21.6117 47.4856 23.7027C46.7873 24.3532 46.2885 24.8179 46.2885 24.8179H41.2506L38.9062 21.0541L41.4002 17.0116C41.4002 17.0116 44.5427 16.2217 47.4856 15.4783C50.2788 14.8278 52.9724 14.1772 52.9724 14.1772C53.0721 14.1772 53.1719 14.1308 53.2218 14.0843C54.5186 13.6196 55.2668 12.2721 54.9177 10.9711C54.5186 9.57714 52.9724 8.78723 51.5258 9.15895C51.5258 9.15895 49.3311 9.71654 47.4856 10.1812C46.1887 10.5065 45.0913 10.7852 45.0913 10.7852C45.0913 10.7852 46.488 8.4155 47.4856 6.74274C48.0343 5.8599 48.4832 5.16291 48.4832 5.16291C49.2314 3.9548 48.7825 2.37497 47.4856 1.63153C47.4856 1.63153 47.4357 1.63153 47.4357 1.58506C46.1887 0.888076 44.5427 1.30627 43.8444 2.56084L40.5523 8.18317L38.8564 2.09618C38.4573 0.702213 37.0108 -0.0877014 35.6142 0.284023C34.4171 0.609282 33.6689 1.63153 33.6689 2.79317C33.6689 3.02549 33.7188 3.25782 33.7686 3.44368C33.7686 3.44368 36.113 11.9469 36.6617 14.0843C36.7614 14.3631 36.8113 14.549 36.8113 14.549L34.3173 18.545H29.5787L27.0349 14.5025C27.0349 14.5025 27.0847 14.3631 27.1346 14.0843C27.6833 12.0398 30.0276 3.44368 30.0276 3.44368C30.3768 2.04972 29.5787 0.655748 28.1821 0.284023C26.7855 -0.0877014 25.3389 0.748679 24.9399 2.09618L23.2939 8.18317L20.0018 2.56084C19.2536 1.30627 17.6575 0.888076 16.4105 1.63153C16.4105 1.63153 16.3606 1.63153 16.3606 1.67799C15.5126 2.14265 15.0138 3.02549 15.0138 3.90834C15.0138 4.32653 15.1136 4.79119 15.363 5.20938C15.363 5.20938 15.762 5.90636 16.3107 6.78921C17.3083 8.46197 18.7049 10.8782 18.7049 10.8782C18.7049 10.8782 17.6076 10.5994 16.3107 10.2277C14.4651 9.76301 12.2704 9.20542 12.2704 9.20542C10.774 8.83369 9.27764 9.67007 8.8786 11.0176C8.82873 11.2499 8.77885 11.4822 8.77885 11.6681C8.77885 12.7368 9.47716 13.7126 10.5745 14.0843C10.6743 14.1308 10.774 14.1308 10.8239 14.1772C10.8239 14.1772 13.5174 14.8278 16.3107 15.4783C19.3035 16.2217 22.4459 17.0116 22.4459 17.0116L24.9399 21.0541L22.5956 24.8643H17.5577C17.5577 24.8643 17.1088 24.4461 16.3606 23.7491C13.9663 21.6117 8.8786 17.1046 8.8786 17.1046C7.78125 16.1288 6.03546 16.1288 4.9381 17.1046C4.38942 17.5692 4.14002 18.2197 4.14002 18.8703C4.14002 19.5208 4.38942 20.1248 4.9381 20.5895L9.72656 24.8179H2.79327C1.247 24.8643 0 25.933 0 27.327C0 28.6745 1.247 29.7897 2.79327 29.7897H9.77644L4.9381 34.0645C4.38942 34.5292 4.14002 35.1797 4.14002 35.7837C4.14002 36.3878 4.38942 37.0383 4.9381 37.503C6.03546 38.4787 7.78125 38.4787 8.8786 37.503C8.8786 37.503 13.9165 33.0423 16.3606 30.9049C17.1088 30.2079 17.5577 29.7897 17.5577 29.7897H22.5956L24.9898 33.5999L22.4958 37.6424C22.4958 37.6424 19.3534 38.4323 16.3606 39.1757C13.5174 39.8262 10.8738 40.4768 10.8738 40.4768C10.774 40.4768 10.6743 40.5232 10.6244 40.5697C9.52704 40.9414 8.82873 41.9172 8.82873 42.9859C8.82873 43.2182 8.87861 43.4506 8.92848 43.6364C9.32752 45.0304 10.8239 45.8203 12.3203 45.4486C12.3203 45.4486 14.515 44.891 16.3606 44.4263C17.6575 44.1011 18.7548 43.7758 18.7548 43.7758C18.7548 43.7758 17.3582 46.192 16.3606 47.8648C15.8119 48.7476 15.4129 49.4446 15.4129 49.4446C15.1635 49.8628 15.0637 50.281 15.0637 50.7457C15.0637 51.6285 15.5625 52.4649 16.4105 52.976C16.4105 52.976 16.4603 52.976 16.4603 53.0225C17.7073 53.7195 19.3534 53.3013 20.0517 52.0932L23.3438 46.4708L24.9898 52.5578C25.3888 53.9518 26.8353 54.7417 28.232 54.37C29.6286 53.9982 30.4766 52.6043 30.0775 51.2103ZM29.5787 31.1372L27.2344 27.327L29.5787 23.5168H34.3173L36.6617 27.327L34.3173 31.1372H29.5787Z" fill="#25D9F8"/>
</svg>
