<svg className='h-0' viewBox="0 0 47 60" fill="none" xmlns="http://www.w3.org/2000/svg">
<path d="M39.846 0C39.846 0 34.5231 4.70249 28.7439 6.5927C-13.9917 20.6541 4.00489 48.0852 4.61323 48.1774C4.61323 48.1774 6.99588 44.397 10.2403 42.2302C30.7717 28.4915 34.9793 12.6783 34.9793 12.6783C34.9793 12.6783 30.3661 31.7187 12.0653 43.5672C8.00977 46.195 5.27226 52.6033 4.15698 59.0577C4.15698 59.0577 7.04657 57.9973 8.26325 57.7207C8.7195 54.8623 9.73339 52.1423 11.457 49.6988C37.0071 52.465 45.3718 33.7473 46.487 27.2007C49.0218 11.7562 39.846 0 39.846 0Z" fill="#49A00F"/>
</svg>
