<svg width="65" height="60" viewBox="0 0 65 60" fill="none" xmlns="http://www.w3.org/2000/svg">
<path d="M64.1194 17.7823C63.2216 15.3176 61.9248 12.9923 60.2789 10.9461C58.5831 8.85338 56.588 7.03969 54.2937 5.50503C51.9495 3.92386 49.306 2.66823 46.5628 1.78464C43.8196 0.901042 40.9767 0.342983 38.0838 0.110458C35.1411 -0.122066 32.1984 0.0174486 29.3055 0.482498C26.3129 0.947547 23.4201 1.78464 20.627 2.90075C17.9337 4.01687 15.3401 5.41202 12.9959 7.0862C10.7016 8.71387 8.60676 10.6671 6.86108 12.8063C5.06553 14.9455 3.61911 17.3173 2.52182 19.8285C1.47442 22.2468 0.776144 24.8511 0.526761 27.5019C0.277378 30.0596 0.476885 32.6639 1.12528 35.1752C1.37466 36.1053 1.67392 37.0354 2.02306 37.919L2.07293 38.012L11.2003 37.9655L17.9836 33.222L26.4626 33.1755L31.2507 29.8271C31.2507 29.8271 40.6275 55.9629 41.1762 57.3115C41.8246 58.9857 43.2211 59.3112 44.4181 58.8927C45.4655 58.5206 46.3134 57.4975 45.6152 55.6838C44.867 53.6376 35.7396 28.2924 35.7396 28.2924L41.7248 28.2459L48.508 23.5024L56.987 23.4559L64.269 18.3404L64.2191 18.2474C64.2191 18.1079 64.1693 17.9218 64.1194 17.7823ZM10.7016 16.8522C10.1529 18.3404 9.70405 19.8751 9.45467 21.4562C8.9559 24.5255 9.05565 27.7344 9.75393 30.8037C9.90355 31.5478 10.1031 32.2919 10.3026 32.9894L10.3524 33.222C10.3524 33.2685 10.4023 33.3615 10.4023 33.408L10.5021 33.78V33.8265L9.85368 34.2916L5.06553 34.3381C2.92084 26.0137 6.6117 17.1778 14.0433 11.1321C13.6443 11.5972 13.2453 12.1087 12.8961 12.6203C12.4473 13.2714 11.9984 13.9689 11.6492 14.6665C11.3001 15.3641 10.951 16.0616 10.7016 16.8522ZM24.4675 29.4551L16.9361 29.5016C16.7865 28.9435 16.6868 28.3855 16.5371 27.7809L16.4873 27.4554C16.188 25.9207 16.0384 24.293 15.9885 22.7119C15.9386 21.1307 16.0882 19.596 16.3376 18.0149C16.3875 17.5963 16.4873 17.1313 16.587 16.7127C16.587 16.7127 16.587 16.7127 16.587 16.6662V16.7127C16.587 16.7127 16.6369 16.5732 16.587 16.6197C16.6868 16.2012 16.8364 15.7361 16.9361 15.3176C17.0359 15.0385 17.0858 14.806 17.1855 14.527C17.2354 14.341 17.3352 14.2015 17.385 14.0154C17.5845 13.4574 17.8339 12.8993 18.1332 12.3413C18.3826 11.7832 18.7317 11.2716 19.031 10.7601C19.6794 9.78348 20.4275 8.85338 21.2754 8.0163C20.3776 12.9458 21.425 20.8982 24.4675 29.4551ZM41.0265 24.2465C37.8344 15.7361 33.545 8.80688 29.6547 5.50503C30.3529 5.59804 31.1011 5.78406 31.8991 6.01658C31.7495 5.97008 31.6497 5.97008 31.949 6.01658C32.5974 6.2026 32.2483 6.10959 31.9989 6.01658C32.747 6.24911 33.4952 6.52814 34.2433 6.80717C34.6423 6.99319 35.0413 7.17921 35.4404 7.36523C35.8394 7.55125 36.2384 7.78377 36.6374 8.0163C36.787 8.10931 36.9366 8.20232 37.1362 8.29533C37.3855 8.43484 37.585 8.62086 37.8344 8.76038C39.1811 9.69047 40.428 10.7601 41.5253 11.9227C42.0739 12.5273 42.6226 13.1318 43.1213 13.7364C43.6201 14.341 44.1189 14.992 44.5678 15.6896C45.1164 16.4802 45.6152 17.3173 46.0641 18.1544L46.2137 18.4334C46.4631 18.945 46.7623 19.4565 47.0117 20.0146L41.0265 24.2465ZM55.7401 19.8751H54.9421L54.8922 19.8285L54.7426 19.4565C54.7426 19.41 54.6927 19.317 54.6428 19.2705L54.5431 19.0845C53.2463 16.1547 51.5505 13.3644 49.306 10.9926C47.1115 8.62086 44.4181 6.62115 41.3757 5.226C40.6774 4.90047 39.9292 4.62144 39.1811 4.38891C38.5826 4.20289 37.9342 4.01687 37.3357 3.87736C47.1613 4.48192 55.79 9.41144 59.5307 17.2708L55.7401 19.8751Z" fill="#FFD901"/>
</svg>
