 <svg viewBox="0 0 128 128" fill="currentColor"><path d="M109.2,18.8C84-6.3,43.6-6.3,18.8,18.8c-25.1,25.1-25.1,65.6,0,90.3c25.1,25.1,65.6,25.1,90.3,0
			C134.3,84.4,134.3,43.6,109.2,18.8z M102.3,102.3c-20.9,20.9-55.4,21.3-76.2,0C5.2,81.5,5.2,47,26.1,25.7
			c20.9-20.9,55.4-20.9,76.7,0C123.2,47,123.2,81,102.3,102.3z"></path> <path d="M64.2,72.7c-0.1,0-0.2,0-0.2,0c-12,0-22.7,6.5-27.3,17c-0.9,2.1-0.1,3.8,1.6,4.7c1.7,0.9,3.9,0,4.8-1.7
			c3.4-8.1,12-13.2,21-13.2c0,0,0.3,0,0.6,0c8.9,0,17.3,5.1,20.7,13.2c0.9,1.7,3,2.6,4.7,1.7c1.7-0.9,2.6-2.5,1.8-4.7
			C87.1,79,76.5,72.7,64.2,72.7z"></path> <path d="M92.2,32.1c-0.2,0-4.3,1.1-8.5,3.2c-4.4,2.2-9.6,6-9.9,11.7c0,0.1,0,0.3,0,0.4c0,4.3,3.5,7.7,7.7,7.7
			c4.3,0,7.7-3.5,7.7-7.7c0-2-0.8-3.9-2.1-5.3c2.2-1.1,4.8-2,6.9-2.6c2.1-0.5,3.3-2.6,2.8-4.7C96.4,32.8,94.3,31.5,92.2,32.1z"></path> <path d="M38.7,47.4c0,4.3,3.5,7.7,7.7,7.7c4.3,0,7.7-3.5,7.7-7.7c0-0.1,0-0.3,0-0.4c-0.2-5.7-5.5-9.5-9.9-11.7
			c-4.2-2.1-8.3-3.1-8.5-3.2c-2.1-0.5-4.2,0.7-4.7,2.8c-0.5,2.1,0.7,4.2,2.8,4.7c2.1,0.5,4.6,1.5,6.9,2.6
			C39.5,43.5,38.7,45.4,38.7,47.4z"></path></svg>